<svg width="20" height="20" viewBox="0 0 20 20" fill="none" xmlns="http://www.w3.org/2000/svg">
<g clip-path="url(#clip0_3239_3594)">
<path d="M10.8327 5.83332H9.16602V9.16666H5.83268V10.8333H9.16602V14.1667H10.8327V10.8333H14.166V9.16666H10.8327V5.83332ZM9.99935 1.66666C5.39935 1.66666 1.66602 5.39999 1.66602 9.99999C1.66602 14.6 5.39935 18.3333 9.99935 18.3333C14.5993 18.3333 18.3327 14.6 18.3327 9.99999C18.3327 5.39999 14.5993 1.66666 9.99935 1.66666ZM9.99935 16.6667C6.32435 16.6667 3.33268 13.675 3.33268 9.99999C3.33268 6.32499 6.32435 3.33332 9.99935 3.33332C13.6743 3.33332 16.666 6.32499 16.666 9.99999C16.666 13.675 13.6743 16.6667 9.99935 16.6667Z" fill="#1C1C1E"/>
</g>
<defs>
<clipPath id="clip0_3239_3594">
<rect width="20" height="20" fill="white"/>
</clipPath>
</defs>
</svg>
