<svg width="304" height="64" viewBox="0 0 304 64" fill="none" xmlns="http://www.w3.org/2000/svg">
<rect x="0.7" y="0.7" width="62.6" height="62.6" rx="31.3" stroke="#D1D1D6" stroke-width="1.4"/>
<path d="M37.6 37.8788V32.5212C37.6 31.7818 37.8303 31.5515 38.5575 31.5515H46.2303C46.8848 31.5515 47.1515 31.8182 47.1515 32.4727V41.3818C47.1515 41.6849 47.2 41.8061 47.5394 41.794C48.1575 41.7576 49.1151 41.7818 49.7333 41.7818C49.9272 41.7818 50.0969 41.8061 50.1818 42C50.2666 42.194 50.1939 42.3394 50.0727 42.4849C48.4121 44.4364 44.4485 48.594 42.7879 50.5455C42.5333 50.8485 42.3394 50.8485 42.0727 50.5333C40.4242 48.594 36.5697 44.4485 34.9212 42.5091C34.7879 42.3515 34.6909 42.194 34.8 41.9879C34.9091 41.7818 35.0666 41.7818 35.2606 41.7818C35.8788 41.7818 36.606 41.7576 37.2242 41.794C37.5636 41.8061 37.6242 41.6849 37.6242 41.3818C37.6 39.5515 37.6 39.7091 37.6 37.8788ZM29.6606 39.8909C29.4909 39.7818 29.406 39.5758 29.4303 39.3818C29.4424 38.8364 29.4303 38.303 29.4424 37.7576C29.4424 37.6121 29.3939 37.5637 29.2606 37.5515C28.1212 37.3818 27.0424 36.9333 26.1212 36.2546C25.8545 36.0727 25.6121 35.8667 25.3939 35.6364C25.2242 35.4424 25.2 35.2849 25.3575 35.0788C25.7091 34.6061 26.0606 34.1455 26.4242 33.6849C26.6182 33.4424 26.8121 33.4182 27.0545 33.6243C27.806 34.303 28.7151 34.7758 29.6969 34.994C30.5212 35.1637 31.3091 35.1152 32.0606 34.6667C32.8485 34.194 33.2363 32.9455 32.206 32.1455C31.6727 31.7333 31.0424 31.4909 30.4121 31.2243C29.6242 30.897 28.8242 30.6061 28.0727 30.2061C27.3212 29.8061 26.6545 29.3212 26.1575 28.6182C25.6363 27.8788 25.4182 26.9818 25.5272 26.0849C25.7212 24.3394 26.7757 23.2727 28.303 22.594C28.6182 22.4606 28.9454 22.3637 29.2848 22.303C29.4182 22.2788 29.4303 22.2182 29.4303 22.1091V20.3515C29.4303 20.0364 29.5636 19.903 29.8788 19.903H31.2363C31.5151 19.903 31.6363 20.0243 31.6363 20.303V22.0606C31.6363 22.1818 31.6727 22.2303 31.7939 22.2424C32.9454 22.3758 34.0363 22.8364 34.9454 23.5515C34.9939 23.5879 35.0424 23.6364 35.0909 23.6849C35.2969 23.8788 35.3212 23.9879 35.1757 24.2303C34.8969 24.7394 34.6182 25.2364 34.3394 25.7455C34.1818 26.0243 33.9636 26.0727 33.6969 25.8667C33.3454 25.5879 32.9697 25.3455 32.5575 25.1515C31.6727 24.7394 30.7636 24.5576 29.806 24.8121C29.1636 24.9818 28.606 25.2849 28.3878 25.9758C28.206 26.5455 28.3878 27.0909 28.8363 27.4788C29.4182 28 30.1333 28.2667 30.8485 28.5455C31.7091 28.8849 32.5697 29.2121 33.3939 29.6485C33.9757 29.9515 34.4848 30.3637 34.8969 30.8606C35.3454 31.4061 35.5515 32.0606 35.6121 32.7637C35.6121 32.8364 35.6242 32.9212 35.6242 32.994C35.6606 33.0667 35.6121 33.1637 35.6606 33.2364V33.3576C35.6121 33.6364 35.6363 33.9273 35.5636 34.2061C35.3818 34.9091 35.0424 35.5515 34.5454 36.097C33.8303 36.897 32.9212 37.3576 31.8909 37.5879C31.7697 37.5879 31.6848 37.697 31.6848 37.8182V37.8424C31.6969 38.3758 31.6848 38.9212 31.6848 39.4667C31.6848 39.6727 31.6121 39.8303 31.3939 39.8909H29.6606Z" fill="#636366"/>
<path d="M31.6 42.7636C31.2242 42.8 30.8364 42.8121 30.4485 42.8121C23.3212 42.8121 17.5394 37.0303 17.5394 29.903C17.5394 22.7758 23.3212 16.9939 30.4485 16.9939C37.5758 16.9939 43.3576 22.7758 43.3576 29.903H47.1152V29.8909C47.103 20.8243 39.5152 13.2364 30.4606 13.2364C21.2606 13.2243 13.7939 20.6788 13.7939 29.8788V29.903C13.7939 38.9697 21.3939 46.5576 30.4485 46.5576C31.9273 46.5576 33.4061 46.3636 34.8364 45.9758L31.6 42.7636Z" fill="#636366"/>
<path d="M85.8516 26.1875C82.6328 26.1875 80.6094 23.9766 80.6094 20.3594C80.6094 16.7656 82.6484 14.5391 85.8516 14.5391C88.4688 14.5391 90.4609 16.1719 90.7109 18.5938H88.7266C88.4609 17.1797 87.3125 16.25 85.8516 16.25C83.9141 16.25 82.6719 17.8438 82.6719 20.3594C82.6719 22.8906 83.9062 24.4766 85.8594 24.4766C87.3516 24.4766 88.4219 23.6719 88.7344 22.3125H90.7109C90.3594 24.7266 88.5156 26.1875 85.8516 26.1875ZM95.0391 24.6641C96.1406 24.6641 97.0234 23.9297 97.0234 22.9297V22.2969L95.1094 22.4141C94.1719 22.4766 93.6328 22.8984 93.6328 23.5547C93.6328 24.2344 94.1953 24.6641 95.0391 24.6641ZM94.4531 26.1328C92.8516 26.1328 91.6875 25.125 91.6875 23.6328C91.6875 22.1641 92.8203 21.2812 94.8359 21.1562L97.0234 21.0312V20.4375C97.0234 19.5703 96.4375 19.0703 95.4766 19.0703C94.5547 19.0703 93.9688 19.5156 93.8438 20.2031H92.0391C92.125 18.6562 93.4453 17.5469 95.5547 17.5469C97.6094 17.5469 98.9453 18.6328 98.9453 20.2969V26H97.0703V24.6797H97.0312C96.5547 25.5781 95.5156 26.1328 94.4531 26.1328ZM100.516 26V17.7188H102.383V19.1562H102.422C102.781 18.1953 103.656 17.5625 104.781 17.5625C105.953 17.5625 106.789 18.1641 107.094 19.2266H107.141C107.539 18.2031 108.523 17.5625 109.719 17.5625C111.352 17.5625 112.422 18.6641 112.422 20.3203V26H110.477V20.7969C110.477 19.7812 109.945 19.2031 108.992 19.2031C108.055 19.2031 107.414 19.8906 107.414 20.8828V26H105.523V20.6953C105.523 19.7734 104.961 19.2031 104.055 19.2031C103.117 19.2031 102.461 19.9297 102.461 20.9297V26H100.516ZM119.211 21.1719L122.328 17.7188H124.57L121.258 21.2812L124.711 26H122.461L119.844 22.4609L119.188 23.125V26H117.242V14.7266H119.188V21.1719H119.211ZM128.664 19.0547C127.57 19.0547 126.781 19.8906 126.703 21.0469H130.57C130.531 19.875 129.781 19.0547 128.664 19.0547ZM130.578 23.5234H132.398C132.148 25.0859 130.695 26.1641 128.734 26.1641C126.25 26.1641 124.75 24.5312 124.75 21.8906C124.75 19.2734 126.266 17.5469 128.656 17.5469C131.008 17.5469 132.477 19.1797 132.477 21.6953V22.3281H126.688V22.4453C126.688 23.7734 127.5 24.6641 128.773 24.6641C129.68 24.6641 130.367 24.2109 130.578 23.5234ZM129.406 14.2578L131.492 16.5859H129.914L128.68 15.1875H128.633L127.398 16.5859H125.82L127.906 14.2578H129.406ZM129.945 14L131.562 11.7188H133.234L131.414 14H129.945ZM134.273 15.7812H136.219V17.7188H137.781V19.2188H136.219V23.5234C136.219 24.2031 136.531 24.5156 137.219 24.5156C137.398 24.5156 137.648 24.5 137.773 24.4766V25.9609C137.562 26.0078 137.18 26.0391 136.766 26.0391C134.977 26.0391 134.273 25.4062 134.273 23.7969V19.2188H133.086V17.7188H134.273V15.7812ZM145.969 24.4609C147.211 24.4609 148.016 23.4531 148.016 21.8359C148.016 20.2266 147.211 19.1797 145.969 19.1797C144.742 19.1797 143.961 20.2109 143.961 21.8359C143.961 23.4766 144.742 24.4609 145.969 24.4609ZM145.961 29.125C143.914 29.125 142.445 28.0781 142.25 26.625H144.18C144.391 27.2578 145.102 27.6875 146.023 27.6875C147.289 27.6875 148.016 26.9766 148.016 25.9219V24.5234H147.969C147.539 25.4141 146.562 26.0078 145.375 26.0078C143.328 26.0078 141.969 24.4062 141.969 21.8281C141.969 19.2109 143.297 17.5781 145.414 17.5781C146.594 17.5781 147.547 18.1875 148.023 19.1406H148.055V17.7188H149.961V25.8672C149.961 27.8438 148.375 29.125 145.961 29.125ZM151.594 26V17.7188H153.539V26H151.594ZM152.555 16.4688C151.969 16.4688 151.492 15.9922 151.492 15.4141C151.492 14.8281 151.969 14.3594 152.555 14.3594C153.156 14.3594 153.625 14.8281 153.625 15.4141C153.625 15.9922 153.156 16.4688 152.555 16.4688ZM158.195 24.6641C159.297 24.6641 160.18 23.9297 160.18 22.9297V22.2969L158.266 22.4141C157.328 22.4766 156.789 22.8984 156.789 23.5547C156.789 24.2344 157.352 24.6641 158.195 24.6641ZM157.609 26.1328C156.008 26.1328 154.844 25.125 154.844 23.6328C154.844 22.1641 155.977 21.2812 157.992 21.1562L160.18 21.0312V20.4375C160.18 19.5703 159.594 19.0703 158.633 19.0703C157.711 19.0703 157.125 19.5156 157 20.2031H155.195C155.281 18.6562 156.602 17.5469 158.711 17.5469C160.766 17.5469 162.102 18.6328 162.102 20.2969V26H160.227V24.6797H160.188C159.711 25.5781 158.672 26.1328 157.609 26.1328ZM159.32 16.5703H157.953L159.25 14.1562H161.109L159.32 16.5703ZM167.414 15.7812H169.359V17.7188H170.922V19.2188H169.359V23.5234C169.359 24.2031 169.672 24.5156 170.359 24.5156C170.539 24.5156 170.789 24.5 170.914 24.4766V25.9609C170.703 26.0078 170.32 26.0391 169.906 26.0391C168.117 26.0391 167.414 25.4062 167.414 23.7969V19.2188H166.227V17.7188H167.414V15.7812ZM175.758 26.1641C173.328 26.1641 171.75 24.5469 171.75 21.8594C171.75 19.1875 173.344 17.5469 175.758 17.5469C178.172 17.5469 179.766 19.1797 179.766 21.8594C179.766 24.5469 178.188 26.1641 175.758 26.1641ZM175.758 24.625C176.992 24.625 177.789 23.625 177.789 21.8594C177.789 20.1016 176.992 19.0938 175.758 19.0938C174.531 19.0938 173.727 20.1016 173.727 21.8594C173.727 23.625 174.523 24.625 175.758 24.625ZM176.508 14.2578L178.594 16.5859H177.016L175.781 15.1875H175.734L174.5 16.5859H172.922L175.008 14.2578H176.508ZM177.047 14L178.664 11.7188H180.336L178.516 14H177.047ZM181.555 15.7812H183.5V17.7188H185.062V19.2188H183.5V23.5234C183.5 24.2031 183.812 24.5156 184.5 24.5156C184.68 24.5156 184.93 24.5 185.055 24.4766V25.9609C184.844 26.0078 184.461 26.0391 184.047 26.0391C182.258 26.0391 181.555 25.4062 181.555 23.7969V19.2188H180.367V17.7188H181.555V15.7812Z" fill="#1C1C1E"/>
<path d="M85.0176 51.1641C82.2969 51.1641 80.5742 49.1885 80.5742 46.0645C80.5742 42.9678 82.3174 40.9717 85.0176 40.9717C87.1641 40.9717 88.7979 42.2773 89.1123 44.2461H87.8682C87.5537 42.9541 86.4258 42.1064 85.0176 42.1064C83.0898 42.1064 81.8389 43.665 81.8389 46.0645C81.8389 48.4844 83.0762 50.0293 85.0244 50.0293C86.4736 50.0293 87.5127 49.332 87.8682 48.1289H89.1123C88.6611 50.0771 87.1982 51.1641 85.0176 51.1641ZM92.7285 50.1113C93.8496 50.1113 94.7109 49.3252 94.7109 48.2998V47.7188L92.8105 47.835C91.8535 47.8965 91.3066 48.3203 91.3066 48.9902C91.3066 49.667 91.874 50.1113 92.7285 50.1113ZM92.4619 51.123C91.0469 51.123 90.0967 50.2686 90.0967 48.9902C90.0967 47.7734 91.0332 47.0078 92.6738 46.9121L94.7109 46.7959V46.2012C94.7109 45.333 94.1367 44.8135 93.1523 44.8135C92.2363 44.8135 91.6621 45.2441 91.5117 45.9414H90.3633C90.4453 44.7109 91.498 43.7676 93.1797 43.7676C94.8477 43.7676 95.9004 44.6699 95.9004 46.085V51H94.7725V49.7764H94.7451C94.3213 50.5898 93.4189 51.123 92.4619 51.123ZM97.4111 51V43.8906H98.5322V45.0254H98.5596C98.8945 44.2734 99.6191 43.7676 100.576 43.7676C101.547 43.7676 102.265 44.2598 102.572 45.1211H102.6C102.996 44.2734 103.83 43.7676 104.828 43.7676C106.236 43.7676 107.146 44.6836 107.146 46.0918V51H105.956V46.3652C105.956 45.3945 105.416 44.8203 104.479 44.8203C103.536 44.8203 102.873 45.5176 102.873 46.4814V51H101.684V46.2354C101.684 45.3809 101.109 44.8203 100.228 44.8203C99.2842 44.8203 98.6006 45.5586 98.6006 46.543V51H97.4111ZM112.785 47.0488L115.93 43.8906H117.372L114.289 46.96L117.468 51H116.087L113.448 47.6914L112.785 48.3203V51H111.596V41.1357H112.785V47.0488ZM120.838 44.7998C119.724 44.7998 118.944 45.6543 118.869 46.8369H122.731C122.704 45.6475 121.959 44.7998 120.838 44.7998ZM122.704 48.9629H123.873C123.668 50.207 122.465 51.123 120.913 51.123C118.876 51.123 117.639 49.708 117.639 47.4727C117.639 45.2646 118.896 43.7676 120.858 43.7676C122.779 43.7676 123.962 45.1621 123.962 47.3154V47.7666H118.862V47.835C118.862 49.1953 119.662 50.0908 120.94 50.0908C121.843 50.0908 122.506 49.6328 122.704 48.9629ZM121.323 40.9512L123.183 42.8652H122.062L120.879 41.6484H120.838L119.655 42.8652H118.534L120.394 40.9512H121.323ZM122.089 40.8008L123.518 38.7773H124.639L123.06 40.8008H122.089ZM125.548 42.1748H126.737V43.8906H128.118V44.8682H126.737V49.0928C126.737 49.7422 127.011 50.0361 127.619 50.0361C127.756 50.0361 128.029 50.0156 128.111 50.002V51C127.968 51.0342 127.64 51.0547 127.359 51.0547C126.054 51.0547 125.548 50.5215 125.548 49.1543V44.8682H124.488V43.8906H125.548V42.1748ZM135.152 50.0088C136.39 50.0088 137.217 48.9834 137.217 47.418C137.217 45.8525 136.39 44.8135 135.152 44.8135C133.929 44.8135 133.129 45.8252 133.129 47.418C133.129 49.0107 133.929 50.0088 135.152 50.0088ZM135.193 53.6797C133.628 53.6797 132.391 52.7979 132.192 51.5879H133.416C133.648 52.2373 134.353 52.668 135.241 52.668C136.472 52.668 137.217 51.957 137.217 50.8975V49.7764H137.189C136.752 50.5488 135.911 51.0547 134.913 51.0547C133.102 51.0547 131.912 49.626 131.912 47.418C131.912 45.1895 133.102 43.7676 134.94 43.7676C135.945 43.7676 136.779 44.2598 137.251 45.0869H137.271V43.8906H138.406V50.8564C138.406 52.5518 137.155 53.6797 135.193 53.6797ZM140.02 51V43.8906H141.209V51H140.02ZM140.614 42.626C140.204 42.626 139.869 42.291 139.869 41.8809C139.869 41.4639 140.204 41.1357 140.614 41.1357C141.031 41.1357 141.359 41.4639 141.359 41.8809C141.359 42.291 141.031 42.626 140.614 42.626ZM145.16 50.1113C146.281 50.1113 147.143 49.3252 147.143 48.2998V47.7188L145.242 47.835C144.285 47.8965 143.738 48.3203 143.738 48.9902C143.738 49.667 144.306 50.1113 145.16 50.1113ZM144.894 51.123C143.479 51.123 142.528 50.2686 142.528 48.9902C142.528 47.7734 143.465 47.0078 145.105 46.9121L147.143 46.7959V46.2012C147.143 45.333 146.568 44.8135 145.584 44.8135C144.668 44.8135 144.094 45.2441 143.943 45.9414H142.795C142.877 44.7109 143.93 43.7676 145.611 43.7676C147.279 43.7676 148.332 44.6699 148.332 46.085V51H147.204V49.7764H147.177C146.753 50.5898 145.851 51.123 144.894 51.123ZM146.001 42.8652H145.078L146.295 40.8145H147.601L146.001 42.8652ZM153.097 42.1748H154.286V43.8906H155.667V44.8682H154.286V49.0928C154.286 49.7422 154.56 50.0361 155.168 50.0361C155.305 50.0361 155.578 50.0156 155.66 50.002V51C155.517 51.0342 155.188 51.0547 154.908 51.0547C153.603 51.0547 153.097 50.5215 153.097 49.1543V44.8682H152.037V43.8906H153.097V42.1748ZM159.68 51.123C157.711 51.123 156.385 49.708 156.385 47.4453C156.385 45.1758 157.711 43.7676 159.68 43.7676C161.642 43.7676 162.968 45.1758 162.968 47.4453C162.968 49.708 161.642 51.123 159.68 51.123ZM159.68 50.0771C160.938 50.0771 161.758 49.1201 161.758 47.4453C161.758 45.7705 160.938 44.8135 159.68 44.8135C158.422 44.8135 157.595 45.7705 157.595 47.4453C157.595 49.1201 158.422 50.0771 159.68 50.0771ZM160.145 40.9512L162.004 42.8652H160.883L159.7 41.6484H159.659L158.477 42.8652H157.355L159.215 40.9512H160.145ZM160.91 40.8008L162.339 38.7773H163.46L161.881 40.8008H160.91ZM164.554 42.1748H165.743V43.8906H167.124V44.8682H165.743V49.0928C165.743 49.7422 166.017 50.0361 166.625 50.0361C166.762 50.0361 167.035 50.0156 167.117 50.002V51C166.974 51.0342 166.646 51.0547 166.365 51.0547C165.06 51.0547 164.554 50.5215 164.554 49.1543V44.8682H163.494V43.8906H164.554V42.1748ZM171.267 51V43.8906H172.388V45.0254H172.415C172.812 44.2598 173.57 43.7676 174.671 43.7676C176.229 43.7676 177.132 44.7725 177.132 46.3857V51H175.942V46.5977C175.942 45.4492 175.402 44.8203 174.309 44.8203C173.188 44.8203 172.456 45.6133 172.456 46.8164V51H171.267ZM178.711 51V41.1357H179.9V45.0254H179.928C180.324 44.2324 181.104 43.7676 182.184 43.7676C183.742 43.7676 184.686 44.8203 184.686 46.4062V51H183.496V46.625C183.496 45.4971 182.929 44.8203 181.814 44.8203C180.632 44.8203 179.9 45.627 179.9 46.8574V51H178.711ZM188.541 50.1113C189.662 50.1113 190.523 49.3252 190.523 48.2998V47.7188L188.623 47.835C187.666 47.8965 187.119 48.3203 187.119 48.9902C187.119 49.667 187.687 50.1113 188.541 50.1113ZM188.274 51.123C186.859 51.123 185.909 50.2686 185.909 48.9902C185.909 47.7734 186.846 47.0078 188.486 46.9121L190.523 46.7959V46.2012C190.523 45.333 189.949 44.8135 188.965 44.8135C188.049 44.8135 187.475 45.2441 187.324 45.9414H186.176C186.258 44.7109 187.311 43.7676 188.992 43.7676C190.66 43.7676 191.713 44.6699 191.713 46.085V51H190.585V49.7764H190.558C190.134 50.5898 189.231 51.123 188.274 51.123ZM189.375 40.9512L191.234 42.8652H190.113L188.931 41.6484H188.89L187.707 42.8652H186.586L188.445 40.9512H189.375ZM190.141 40.8008L191.569 38.7773H192.69L191.111 40.8008H190.141ZM193.606 42.1748H194.796V43.8906H196.177V44.8682H194.796V49.0928C194.796 49.7422 195.069 50.0361 195.678 50.0361C195.814 50.0361 196.088 50.0156 196.17 50.002V51C196.026 51.0342 195.698 51.0547 195.418 51.0547C194.112 51.0547 193.606 50.5215 193.606 49.1543V44.8682H192.547V43.8906H193.606V42.1748ZM200.702 42.1748H201.892V43.8906H203.272V44.8682H201.892V49.0928C201.892 49.7422 202.165 50.0361 202.773 50.0361C202.91 50.0361 203.184 50.0156 203.266 50.002V51C203.122 51.0342 202.794 51.0547 202.514 51.0547C201.208 51.0547 200.702 50.5215 200.702 49.1543V44.8682H199.643V43.8906H200.702V42.1748ZM204.605 51V41.1357H205.795V45.0254H205.822C206.219 44.2324 206.998 43.7676 208.078 43.7676C209.637 43.7676 210.58 44.8203 210.58 46.4062V51H209.391V46.625C209.391 45.4971 208.823 44.8203 207.709 44.8203C206.526 44.8203 205.795 45.627 205.795 46.8574V51H204.605ZM212.152 51V43.8906H213.342V51H212.152ZM212.747 42.626C212.337 42.626 212.002 42.291 212.002 41.8809C212.002 41.4639 212.337 41.1357 212.747 41.1357C213.164 41.1357 213.492 41.4639 213.492 41.8809C213.492 42.291 213.164 42.626 212.747 42.626ZM212.747 53.4336C212.337 53.4336 212.002 53.0986 212.002 52.6885C212.002 52.2715 212.337 51.9434 212.747 51.9434C213.164 51.9434 213.492 52.2715 213.492 52.6885C213.492 53.0986 213.164 53.4336 212.747 53.4336ZM218.202 42.1748H219.392V43.8906H220.772V44.8682H219.392V49.0928C219.392 49.7422 219.665 50.0361 220.273 50.0361C220.41 50.0361 220.684 50.0156 220.766 50.002V51C220.622 51.0342 220.294 51.0547 220.014 51.0547C218.708 51.0547 218.202 50.5215 218.202 49.1543V44.8682H217.143V43.8906H218.202V42.1748ZM222.044 51V43.8906H223.165V45.0527H223.192C223.425 44.2666 224.081 43.7676 224.915 43.7676C225.12 43.7676 225.298 43.8018 225.394 43.8154V44.9707C225.298 44.9365 225.045 44.9023 224.758 44.9023C223.835 44.9023 223.233 45.5654 223.233 46.5703V51H222.044ZM231.047 49.8447C230.623 50.665 229.885 51.123 228.791 51.123C227.239 51.123 226.33 50.1182 226.33 48.5049V43.8906H227.52V48.293C227.52 49.4482 228.06 50.0703 229.16 50.0703C230.315 50.0703 231.013 49.2773 231.013 48.0674V43.8906H232.024C232.435 43.8906 232.619 43.7061 232.619 43.3164V42.3115H233.692V43.5215C233.692 44.2939 233.193 44.7588 232.353 44.7588H232.202V51H231.074V49.8447H231.047ZM237.008 50.0771C238.266 50.0771 239.086 49.1201 239.086 47.4453C239.086 45.7705 238.266 44.8135 237.008 44.8135C235.75 44.8135 234.923 45.7705 234.923 47.4453C234.923 49.1201 235.75 50.0771 237.008 50.0771ZM240.296 47.4453C240.296 49.708 238.97 51.123 237.008 51.123C235.039 51.123 233.713 49.708 233.713 47.4453C233.713 45.1758 235.039 43.7676 237.008 43.7676C237.896 43.7676 238.225 43.9932 238.812 43.9932C239.353 43.9932 239.53 43.8359 239.53 43.3779V42.4756H240.604V43.7334C240.604 44.3486 240.2 44.793 239.64 44.793H239.414V44.8203C239.968 45.4561 240.296 46.3311 240.296 47.4453ZM236.536 42.8652L234.937 40.8145H236.242L237.459 42.8652H236.536ZM241.8 51V43.8906H242.921V45.0254H242.948C243.345 44.2598 244.104 43.7676 245.204 43.7676C246.763 43.7676 247.665 44.7725 247.665 46.3857V51H246.476V46.5977C246.476 45.4492 245.936 44.8203 244.842 44.8203C243.721 44.8203 242.989 45.6133 242.989 46.8164V51H241.8ZM252.074 50.0088C253.312 50.0088 254.139 48.9834 254.139 47.418C254.139 45.8525 253.312 44.8135 252.074 44.8135C250.851 44.8135 250.051 45.8252 250.051 47.418C250.051 49.0107 250.851 50.0088 252.074 50.0088ZM252.115 53.6797C250.55 53.6797 249.312 52.7979 249.114 51.5879H250.338C250.57 52.2373 251.274 52.668 252.163 52.668C253.394 52.668 254.139 51.957 254.139 50.8975V49.7764H254.111C253.674 50.5488 252.833 51.0547 251.835 51.0547C250.023 51.0547 248.834 49.626 248.834 47.418C248.834 45.1895 250.023 43.7676 251.862 43.7676C252.867 43.7676 253.701 44.2598 254.173 45.0869H254.193V43.8906H255.328V50.8564C255.328 52.5518 254.077 53.6797 252.115 53.6797Z" fill="#636366"/>
</svg>
