<svg width="304" height="64" viewBox="0 0 304 64" fill="none" xmlns="http://www.w3.org/2000/svg">
<rect x="0.7" y="0.7" width="62.6" height="62.6" rx="31.3" stroke="#D1D1D6" stroke-width="1.4"/>
<path d="M41.5959 36.9707C40.2494 38.82 38.0683 40.0245 35.6109 40.0245H32.1627C30.9716 40.0245 29.9572 39.2683 29.5731 38.2098C29.094 38.0665 28.628 37.8823 28.1803 37.6594C27.2195 37.182 26.3471 36.5352 25.5791 35.734C20.5975 36.8284 16.8691 41.2673 16.8691 46.5776V47.2717C16.8691 48.2259 17.6427 48.9994 18.5968 48.9994H45.4022C46.3564 48.9994 47.1299 48.2259 47.1299 47.2717V46.5776C47.1298 42.4753 44.9047 38.893 41.5959 36.9707Z" fill="#636366"/>
<path d="M23.7427 32.1732C24.4852 32.1732 25.1315 31.7617 25.4664 31.1543C25.4752 31.1784 25.4841 31.2023 25.4931 31.2262L25.5011 31.2477C26.2866 33.3153 27.8151 35.0486 29.8305 35.806C30.3179 35.0315 31.1798 34.5164 32.1626 34.5164H35.6107C35.9547 34.5164 36.2748 34.4193 36.5554 34.2624C37.0267 33.9989 37.4506 33.3303 37.6694 32.976C38.0197 32.4089 38.291 31.8082 38.5316 31.1533C38.6666 31.3983 38.852 31.6118 39.0756 31.7799V32.6254C39.0756 34.5359 37.5213 36.0903 35.6107 36.0903H32.1625C31.5107 36.0903 30.9822 36.6188 30.9822 37.2706C30.9822 37.9226 31.5107 38.451 32.1625 38.451H35.6107C38.8229 38.451 41.4363 35.8376 41.4363 32.6254V31.7799C41.9141 31.4209 42.2232 30.8496 42.2232 30.206V25.282C42.2232 24.6252 41.9011 24.0441 41.4065 23.6868C41.0229 18.8326 36.9503 15 31.9993 15C27.0482 15 22.9757 18.8326 22.5921 23.6867C22.0975 24.044 21.7754 24.6252 21.7754 25.282V30.2059C21.7754 31.2955 22.6605 32.1732 23.7427 32.1732ZM31.9993 17.3608C35.6644 17.3608 38.6875 20.1617 39.0408 23.7355C38.8075 23.9188 38.6185 24.1524 38.4879 24.4188C37.3742 21.513 34.8879 19.4899 31.9992 19.4899C29.0483 19.4899 26.6019 21.5825 25.5149 24.4072L25.5105 24.4189C25.3799 24.1524 25.1909 23.9189 24.9576 23.7356C25.3112 20.1617 28.3341 17.3608 31.9993 17.3608Z" fill="#636366"/>
<path d="M90.5 26H88.4922V21.1094H83.0078V26H80.9922V14.7266H83.0078V19.4141H88.4922V14.7266H90.5V26ZM95.9609 26.1641C93.5312 26.1641 91.9531 24.5469 91.9531 21.8594C91.9531 19.1875 93.5469 17.5469 95.9609 17.5469C98.375 17.5469 99.9688 19.1797 99.9688 21.8594C99.9688 24.5469 98.3906 26.1641 95.9609 26.1641ZM95.9609 24.625C97.1953 24.625 97.9922 23.625 97.9922 21.8594C97.9922 20.1016 97.1953 19.0938 95.9609 19.0938C94.7344 19.0938 93.9297 20.1016 93.9297 21.8594C93.9297 23.625 94.7266 24.625 95.9609 24.625ZM96.7109 14.1094L98.7969 16.3828H97.2188L95.9844 15.0312H95.9375L94.7031 16.3828H93.125L95.2109 14.1094H96.7109ZM97.0156 13.5625C95.9453 13.5625 95.5547 12.4688 94.9609 12.4688C94.6016 12.4688 94.3906 12.8438 94.4062 13.4141H93.2891C93.2891 12.1484 93.9766 11.4062 94.9219 11.4062C95.9766 11.4062 96.3672 12.5 96.9688 12.5C97.3203 12.5 97.5078 12.1406 97.5156 11.5391H98.6328C98.6328 12.7891 97.9297 13.5625 97.0156 13.5625ZM104.961 15.7812H106.906V17.7188H108.469V19.2188H106.906V23.5234C106.906 24.2031 107.219 24.5156 107.906 24.5156C108.086 24.5156 108.336 24.5 108.461 24.4766V25.9609C108.25 26.0078 107.867 26.0391 107.453 26.0391C105.664 26.0391 104.961 25.4062 104.961 23.7969V19.2188H103.773V17.7188H104.961V15.7812ZM109.797 26V17.7188H111.664V19.1641H111.703C111.984 18.1562 112.711 17.5781 113.688 17.5781C113.938 17.5781 114.156 17.625 114.297 17.6562V19.4141C114.133 19.3516 113.836 19.3047 113.508 19.3047C112.406 19.3047 111.742 20.0156 111.742 21.1797V26H109.797ZM118.648 24.625C119.891 24.625 120.68 23.6094 120.68 21.8594C120.68 20.1094 119.883 19.0938 118.648 19.0938C117.414 19.0938 116.617 20.1094 116.617 21.8594C116.617 23.6172 117.406 24.625 118.648 24.625ZM122.656 21.9531C122.656 24.5156 121.047 26.1641 118.672 26.1641C116.211 26.1641 114.641 24.5312 114.641 21.8594C114.641 19.1953 116.219 17.5469 118.648 17.5469C119.727 17.5469 120.125 17.8438 120.828 17.8438C121.438 17.8438 121.656 17.6641 121.656 17.1797V16.1016H123.242V17.6953C123.242 18.5391 122.758 19.0625 121.953 19.0625H121.695V19.1016C122.297 19.7734 122.656 20.7422 122.656 21.9531ZM118.672 29.1094C118.086 29.1094 117.609 28.6328 117.609 28.0547C117.609 27.4688 118.086 27 118.672 27C119.273 27 119.742 27.4688 119.742 28.0547C119.742 28.6328 119.273 29.1094 118.672 29.1094ZM128.195 15.7812H130.141V17.7188H131.703V19.2188H130.141V23.5234C130.141 24.2031 130.453 24.5156 131.141 24.5156C131.32 24.5156 131.57 24.5 131.695 24.4766V25.9609C131.484 26.0078 131.102 26.0391 130.688 26.0391C128.898 26.0391 128.195 25.4062 128.195 23.7969V19.2188H127.008V17.7188H128.195V15.7812ZM133.031 26V17.7188H134.898V19.1641H134.938C135.219 18.1562 135.945 17.5781 136.922 17.5781C137.172 17.5781 137.391 17.625 137.531 17.6562V19.4141C137.367 19.3516 137.07 19.3047 136.742 19.3047C135.641 19.3047 134.977 20.0156 134.977 21.1797V26H133.031ZM143.961 24.5625C143.523 25.5703 142.688 26.1484 141.43 26.1484C139.633 26.1484 138.492 24.9844 138.492 23.0703V17.7188H140.438V22.6797C140.438 23.8672 141.016 24.5078 142.109 24.5078C143.234 24.5078 143.93 23.7109 143.93 22.5078V17.7188H145.805C146.227 17.7188 146.438 17.5156 146.438 17.1094V15.9219H148.023V17.4766C148.023 18.4531 147.406 19.0312 146.359 19.0312H145.875V26H144V24.5625H143.961ZM142.188 29.1094C141.602 29.1094 141.125 28.6328 141.125 28.0547C141.125 27.4688 141.602 27 142.188 27C142.789 27 143.258 27.4688 143.258 28.0547C143.258 28.6328 142.789 29.1094 142.188 29.1094ZM155.812 20.6719H153.977C153.82 19.7891 153.203 19.125 152.164 19.125C150.938 19.125 150.148 20.1562 150.148 21.8594C150.148 23.5938 150.945 24.5938 152.18 24.5938C153.164 24.5938 153.805 24.0312 153.984 23.0938H155.82C155.664 24.9453 154.234 26.1641 152.156 26.1641C149.734 26.1641 148.172 24.5469 148.172 21.8594C148.172 19.2109 149.734 17.5469 152.141 17.5469C154.328 17.5469 155.68 18.9297 155.812 20.6719ZM160.727 15.7812H162.672V17.7188H164.234V19.2188H162.672V23.5234C162.672 24.2031 162.984 24.5156 163.672 24.5156C163.852 24.5156 164.102 24.5 164.227 24.4766V25.9609C164.016 26.0078 163.633 26.0391 163.219 26.0391C161.43 26.0391 160.727 25.4062 160.727 23.7969V19.2188H159.539V17.7188H160.727V15.7812ZM172.906 17.7188V26H171.031V24.5625H170.992C170.555 25.5703 169.719 26.1484 168.461 26.1484C166.664 26.1484 165.523 24.9844 165.523 23.0703V17.7188H167.469V22.6797C167.469 23.8672 168.047 24.5078 169.141 24.5078C170.266 24.5078 170.961 23.7109 170.961 22.5078V17.7188H172.906ZM175.43 29.0781C175.312 29.0781 174.766 29.0703 174.664 29.0469V27.5078C174.766 27.5312 175.109 27.5391 175.227 27.5391C176.031 27.5391 176.445 27.2344 176.656 26.4688C176.656 26.4453 176.781 26.0312 176.773 26.0078L173.828 17.7188H175.953L177.898 24.3438H177.938L179.891 17.7188H181.938L178.938 26.3281C178.234 28.3828 177.32 29.0781 175.43 29.0781ZM186.195 19.0547C185.102 19.0547 184.312 19.8906 184.234 21.0469H188.102C188.062 19.875 187.312 19.0547 186.195 19.0547ZM188.109 23.5234H189.93C189.68 25.0859 188.227 26.1641 186.266 26.1641C183.781 26.1641 182.281 24.5312 182.281 21.8906C182.281 19.2734 183.797 17.5469 186.188 17.5469C188.539 17.5469 190.008 19.1797 190.008 21.6953V22.3281H184.219V22.4453C184.219 23.7734 185.031 24.6641 186.305 24.6641C187.211 24.6641 187.898 24.2109 188.109 23.5234ZM186.938 14.2578L189.023 16.5859H187.445L186.211 15.1875H186.164L184.93 16.5859H183.352L185.438 14.2578H186.938ZM187.477 14L189.094 11.7188H190.766L188.945 14H187.477ZM191.266 26V17.7188H193.133V19.1406H193.172C193.617 18.1562 194.5 17.5625 195.773 17.5625C197.602 17.5625 198.641 18.7344 198.641 20.6484V26H196.695V21.0391C196.695 19.8672 196.148 19.2109 195.039 19.2109C193.922 19.2109 193.211 20.0156 193.211 21.2031V26H191.266Z" fill="#1C1C1E"/>
<path d="M88.832 51H87.6016V46.5088H82.1875V51H80.957V41.1357H82.1875V45.4014H87.6016V41.1357H88.832V51ZM92.7012 50.1113C93.8223 50.1113 94.6836 49.3252 94.6836 48.2998V47.7188L92.7832 47.835C91.8262 47.8965 91.2793 48.3203 91.2793 48.9902C91.2793 49.667 91.8467 50.1113 92.7012 50.1113ZM92.4346 51.123C91.0195 51.123 90.0693 50.2686 90.0693 48.9902C90.0693 47.7734 91.0059 47.0078 92.6465 46.9121L94.6836 46.7959V46.2012C94.6836 45.333 94.1094 44.8135 93.125 44.8135C92.209 44.8135 91.6348 45.2441 91.4844 45.9414H90.3359C90.418 44.7109 91.4707 43.7676 93.1523 43.7676C94.8203 43.7676 95.873 44.6699 95.873 46.085V51H94.7451V49.7764H94.7178C94.2939 50.5898 93.3916 51.123 92.4346 51.123ZM92.2637 41.498V40.7803C92.5576 40.6572 92.8105 40.6094 93.1797 40.6094C93.959 40.6094 94.4648 41.0811 94.4648 41.8057C94.4648 42.3799 94.0273 42.9062 93.3574 43.1455L92.9404 42.5713C93.3711 42.4277 93.5693 42.2021 93.5693 41.8535C93.5693 41.5664 93.3027 41.334 92.9609 41.334C92.7217 41.334 92.5645 41.3682 92.2637 41.498ZM97.4453 51V43.8906H98.6348V51H97.4453ZM98.04 42.626C97.6299 42.626 97.2949 42.291 97.2949 41.8809C97.2949 41.4639 97.6299 41.1357 98.04 41.1357C98.457 41.1357 98.7852 41.4639 98.7852 41.8809C98.7852 42.291 98.457 42.626 98.04 42.626ZM104.527 49.8926H106.53C108.766 49.8926 110.01 48.5254 110.01 46.0781C110.01 43.6104 108.772 42.2432 106.53 42.2432H104.527V45.3604H106.763V46.4678H104.527V49.8926ZM103.297 41.1357H106.612C109.538 41.1357 111.268 42.9609 111.268 46.0645C111.268 49.1748 109.545 51 106.612 51H103.297V46.4678H102.381V45.3604H103.297V41.1357ZM114.959 50.1113C116.08 50.1113 116.941 49.3252 116.941 48.2998V47.7188L115.041 47.835C114.084 47.8965 113.537 48.3203 113.537 48.9902C113.537 49.667 114.104 50.1113 114.959 50.1113ZM114.692 51.123C113.277 51.123 112.327 50.2686 112.327 48.9902C112.327 47.7734 113.264 47.0078 114.904 46.9121L116.941 46.7959V46.2012C116.941 45.333 116.367 44.8135 115.383 44.8135C114.467 44.8135 113.893 45.2441 113.742 45.9414H112.594C112.676 44.7109 113.729 43.7676 115.41 43.7676C117.078 43.7676 118.131 44.6699 118.131 46.085V51H117.003V49.7764H116.976C116.552 50.5898 115.649 51.123 114.692 51.123ZM113.195 40.8145H114.091C114.091 41.6484 114.549 42.168 115.328 42.168C116.107 42.168 116.565 41.6484 116.565 40.8145H117.461C117.461 42.0586 116.682 42.9336 115.328 42.9336C113.975 42.9336 113.195 42.0586 113.195 40.8145ZM119.642 51V43.8906H120.763V45.0254H120.79C121.187 44.2598 121.945 43.7676 123.046 43.7676C124.604 43.7676 125.507 44.7725 125.507 46.3857V51H124.317V46.5977C124.317 45.4492 123.777 44.8203 122.684 44.8203C121.562 44.8203 120.831 45.6133 120.831 46.8164V51H119.642ZM129.916 50.0088C131.153 50.0088 131.98 48.9834 131.98 47.418C131.98 45.8525 131.153 44.8135 129.916 44.8135C128.692 44.8135 127.893 45.8252 127.893 47.418C127.893 49.0107 128.692 50.0088 129.916 50.0088ZM129.957 53.6797C128.392 53.6797 127.154 52.7979 126.956 51.5879H128.18C128.412 52.2373 129.116 52.668 130.005 52.668C131.235 52.668 131.98 51.957 131.98 50.8975V49.7764H131.953C131.516 50.5488 130.675 51.0547 129.677 51.0547C127.865 51.0547 126.676 49.626 126.676 47.418C126.676 45.1895 127.865 43.7676 129.704 43.7676C130.709 43.7676 131.543 44.2598 132.015 45.0869H132.035V43.8906H133.17V50.8564C133.17 52.5518 131.919 53.6797 129.957 53.6797ZM137.654 51V41.1357H138.844V51H137.654ZM146.288 43.8906V51H145.16V49.8447H145.133C144.709 50.665 143.971 51.123 142.877 51.123C141.325 51.123 140.416 50.1182 140.416 48.5049V43.8906H141.605V48.293C141.605 49.4482 142.146 50.0703 143.246 50.0703C144.401 50.0703 145.099 49.2773 145.099 48.0674V43.8906H146.288ZM150.779 51.123C148.811 51.123 147.484 49.708 147.484 47.4453C147.484 45.1758 148.811 43.7676 150.779 43.7676C152.741 43.7676 154.067 45.1758 154.067 47.4453C154.067 49.708 152.741 51.123 150.779 51.123ZM150.779 50.0771C152.037 50.0771 152.857 49.1201 152.857 47.4453C152.857 45.7705 152.037 44.8135 150.779 44.8135C149.521 44.8135 148.694 45.7705 148.694 47.4453C148.694 49.1201 149.521 50.0771 150.779 50.0771ZM151.237 40.8145L152.939 42.8652H151.859L150.8 41.5732H150.759L149.699 42.8652H148.619L150.321 40.8145H151.237ZM155.271 51V43.8906H156.392V45.0254H156.419C156.815 44.2598 157.574 43.7676 158.675 43.7676C160.233 43.7676 161.136 44.7725 161.136 46.3857V51H159.946V46.5977C159.946 45.4492 159.406 44.8203 158.312 44.8203C157.191 44.8203 156.46 45.6133 156.46 46.8164V51H155.271ZM165.586 51V41.1357H166.775V45.0254H166.803C167.199 44.2324 167.979 43.7676 169.059 43.7676C170.617 43.7676 171.561 44.8203 171.561 46.4062V51H170.371V46.625C170.371 45.4971 169.804 44.8203 168.689 44.8203C167.507 44.8203 166.775 45.627 166.775 46.8574V51H165.586ZM176.018 51.123C174.049 51.123 172.723 49.708 172.723 47.4453C172.723 45.1758 174.049 43.7676 176.018 43.7676C177.979 43.7676 179.306 45.1758 179.306 47.4453C179.306 49.708 177.979 51.123 176.018 51.123ZM176.018 50.0771C177.275 50.0771 178.096 49.1201 178.096 47.4453C178.096 45.7705 177.275 44.8135 176.018 44.8135C174.76 44.8135 173.933 45.7705 173.933 47.4453C173.933 49.1201 174.76 50.0771 176.018 50.0771ZM176.482 40.6914L178.342 42.6055H177.221L176.038 41.3887H175.997L174.814 42.6055H173.693L175.553 40.6914H176.482ZM176.913 40.2061C176.011 40.2061 175.669 39.1875 175.129 39.1875C174.814 39.1875 174.609 39.5156 174.637 40.0762H173.844C173.844 39.0439 174.356 38.4355 175.136 38.4355C176.024 38.4355 176.366 39.4541 176.92 39.4541C177.221 39.4541 177.398 39.1396 177.398 38.5586H178.191C178.191 39.5635 177.658 40.2061 176.913 40.2061ZM183.763 42.1748H184.952V43.8906H186.333V44.8682H184.952V49.0928C184.952 49.7422 185.226 50.0361 185.834 50.0361C185.971 50.0361 186.244 50.0156 186.326 50.002V51C186.183 51.0342 185.854 51.0547 185.574 51.0547C184.269 51.0547 183.763 50.5215 183.763 49.1543V44.8682H182.703V43.8906H183.763V42.1748ZM187.604 51V43.8906H188.726V45.0527H188.753C188.985 44.2666 189.642 43.7676 190.476 43.7676C190.681 43.7676 190.858 43.8018 190.954 43.8154V44.9707C190.858 44.9365 190.605 44.9023 190.318 44.9023C189.396 44.9023 188.794 45.5654 188.794 46.5703V51H187.604ZM194.529 50.0771C195.787 50.0771 196.607 49.1201 196.607 47.4453C196.607 45.7705 195.787 44.8135 194.529 44.8135C193.271 44.8135 192.444 45.7705 192.444 47.4453C192.444 49.1201 193.271 50.0771 194.529 50.0771ZM197.817 47.4453C197.817 49.708 196.491 51.123 194.529 51.123C192.561 51.123 191.234 49.708 191.234 47.4453C191.234 45.1758 192.561 43.7676 194.529 43.7676C195.418 43.7676 195.746 43.9932 196.334 43.9932C196.874 43.9932 197.052 43.8359 197.052 43.3779V42.4756H198.125V43.7334C198.125 44.3486 197.722 44.793 197.161 44.793H196.936V44.8203C197.489 45.4561 197.817 46.3311 197.817 47.4453ZM194.529 53.4336C194.119 53.4336 193.784 53.0986 193.784 52.6885C193.784 52.2715 194.119 51.9434 194.529 51.9434C194.946 51.9434 195.274 52.2715 195.274 52.6885C195.274 53.0986 194.946 53.4336 194.529 53.4336ZM205.727 51.123C204.688 51.123 203.874 50.6172 203.416 49.7969H203.389V51H202.254V41.1357H203.443V45.0801H203.471C203.915 44.2666 204.742 43.7676 205.747 43.7676C207.538 43.7676 208.748 45.2168 208.748 47.4453C208.748 49.6807 207.545 51.123 205.727 51.123ZM205.494 44.8135C204.291 44.8135 203.437 45.8662 203.437 47.4453C203.437 49.0312 204.291 50.0771 205.494 50.0771C206.752 50.0771 207.531 49.0723 207.531 47.4453C207.531 45.832 206.752 44.8135 205.494 44.8135ZM212.303 50.1113C213.424 50.1113 214.285 49.3252 214.285 48.2998V47.7188L212.385 47.835C211.428 47.8965 210.881 48.3203 210.881 48.9902C210.881 49.667 211.448 50.1113 212.303 50.1113ZM212.036 51.123C210.621 51.123 209.671 50.2686 209.671 48.9902C209.671 47.7734 210.607 47.0078 212.248 46.9121L214.285 46.7959V46.2012C214.285 45.333 213.711 44.8135 212.727 44.8135C211.811 44.8135 211.236 45.2441 211.086 45.9414H209.938C210.02 44.7109 211.072 43.7676 212.754 43.7676C214.422 43.7676 215.475 44.6699 215.475 46.085V51H214.347V49.7764H214.319C213.896 50.5898 212.993 51.123 212.036 51.123ZM212.576 53.4336C212.166 53.4336 211.831 53.0986 211.831 52.6885C211.831 52.2715 212.166 51.9434 212.576 51.9434C212.993 51.9434 213.321 52.2715 213.321 52.6885C213.321 53.0986 212.993 53.4336 212.576 53.4336ZM216.985 51V43.8906H218.106V45.0254H218.134C218.53 44.2598 219.289 43.7676 220.39 43.7676C221.948 43.7676 222.851 44.7725 222.851 46.3857V51H221.661V46.5977C221.661 45.4492 221.121 44.8203 220.027 44.8203C218.906 44.8203 218.175 45.6133 218.175 46.8164V51H216.985ZM227.205 43.9863C227.205 42.2568 228.627 40.9717 230.527 40.9717C232.353 40.9717 233.61 42.2158 233.61 43.7129C233.61 44.7998 233.111 45.6133 231.3 47.4727L228.955 49.8789V49.9062H233.774V51H227.267V50.1523L230.739 46.5293C232.072 45.1416 232.38 44.6084 232.38 43.7881C232.38 42.8174 231.655 42.0449 230.527 42.0449C229.311 42.0449 228.395 42.8789 228.395 43.9863H227.205ZM239.544 51V48.9492H234.588V47.835C235.429 46.2764 236.584 44.4785 238.915 41.1357H240.733V47.8691H242.128V48.9492H240.733V51H239.544ZM235.805 47.8418V47.8691H239.544V42.1611H239.523C237.657 44.8271 236.584 46.4746 235.805 47.8418ZM243.536 53.0986H242.518L246.011 41.1357H247.029L243.536 53.0986ZM248.396 51L252.86 42.2568V42.2295H247.549V41.1357H254.077V42.2773L249.688 51H248.396Z" fill="#636366"/>
</svg>
