<svg width="304" height="64" viewBox="0 0 304 64" fill="none" xmlns="http://www.w3.org/2000/svg">
<rect x="0.7" y="0.7" width="62.6" height="62.6" rx="31.3" stroke="#D1D1D6" stroke-width="1.4"/>
<path fill-rule="evenodd" clip-rule="evenodd" d="M40.5156 20.4387C43.9836 21.2434 45.3102 23.2713 46.9734 26.0625H40.5156V20.4387ZM20.2483 26.2969C20.9273 26.2969 21.4202 26.6246 21.4202 27.3906C21.4202 28.0367 20.8974 28.5607 20.2516 28.5625H13.1719C12.5246 28.5625 12 29.0874 12 29.7344C12 30.3816 12.5246 30.9062 13.1719 30.9062H23.7188C24.3721 30.9062 24.8952 31.4305 24.8952 32.0781C24.8952 32.7254 24.3706 33.25 23.7234 33.25H13.1719C12.5246 33.25 12 33.7746 12 34.4219C12 35.0691 12.5246 35.5938 13.1719 35.5938H15.75V39.1094C15.75 39.7566 16.2746 40.2812 16.9219 40.2812H19.2775C19.6974 42.3498 21.5252 43.875 23.6797 43.875C25.8342 43.875 27.662 42.3498 28.0819 40.2812H39.9806C40.4005 42.3498 42.2283 43.875 44.3828 43.875C46.5373 43.875 48.3651 42.3498 48.785 40.2812H50.8281C51.4754 40.2812 52 39.7566 52 39.1094V32.0781C52 28.6397 48.3733 28.4114 48.3699 28.4062H39.3438C38.6965 28.4062 38.1719 27.8816 38.1719 27.2344V20.2031H16.9219C16.2746 20.2031 15.75 20.7277 15.75 21.375V23.9531H14.3438C13.6965 23.9531 13.1719 24.4777 13.1719 25.125C13.1719 25.7723 13.6965 26.2969 14.3438 26.2969H20.2483ZM45.902 37.8637C46.7409 38.7026 46.7409 40.0634 45.902 40.9023C44.5525 42.2518 42.2344 41.2917 42.2344 39.3828C42.2344 37.4742 44.5525 36.5141 45.902 37.8637ZM25.1988 37.8637C26.0378 38.7026 26.0378 40.0634 25.1988 40.9023C23.8494 42.2518 21.5312 41.2917 21.5312 39.3828C21.5312 37.4742 23.8494 36.5141 25.1988 37.8637Z" fill="#636366"/>
<path d="M90.8594 21.2969C90.8594 24.3516 89.0312 26.1875 85.9453 26.1875C82.6562 26.1875 80.6094 23.9531 80.6094 20.3203C80.6094 16.7422 82.6484 14.5391 85.9062 14.5391C88.4688 14.5391 90.4062 16.0547 90.7734 18.3125H88.7266C88.3438 17.0156 87.2969 16.25 85.9141 16.25C83.8828 16.25 82.6719 17.7578 82.6719 20.2969C82.6719 22.8906 83.9375 24.4766 85.9688 24.4766C87.6719 24.4766 88.8516 23.3984 88.8828 21.8203L88.8906 21.6328H86.1719V20.0938H90.8594V21.2969ZM92.3594 26V17.7188H94.3047V26H92.3594ZM93.3203 16.4688C92.7344 16.4688 92.2578 15.9922 92.2578 15.4141C92.2578 14.8281 92.7344 14.3594 93.3203 14.3594C93.9219 14.3594 94.3906 14.8281 94.3906 15.4141C94.3906 15.9922 93.9219 16.4688 93.3203 16.4688ZM98.9609 24.6641C100.062 24.6641 100.945 23.9297 100.945 22.9297V22.2969L99.0312 22.4141C98.0938 22.4766 97.5547 22.8984 97.5547 23.5547C97.5547 24.2344 98.1172 24.6641 98.9609 24.6641ZM98.375 26.1328C96.7734 26.1328 95.6094 25.125 95.6094 23.6328C95.6094 22.1641 96.7422 21.2812 98.7578 21.1562L100.945 21.0312V20.4375C100.945 19.5703 100.359 19.0703 99.3984 19.0703C98.4766 19.0703 97.8906 19.5156 97.7656 20.2031H95.9609C96.0469 18.6562 97.3672 17.5469 99.4766 17.5469C101.531 17.5469 102.867 18.6328 102.867 20.2969V26H100.992V24.6797H100.953C100.477 25.5781 99.4375 26.1328 98.375 26.1328ZM108.102 26.1641C105.672 26.1641 104.094 24.5469 104.094 21.8594C104.094 19.1875 105.688 17.5469 108.102 17.5469C110.516 17.5469 112.109 19.1797 112.109 21.8594C112.109 24.5469 110.531 26.1641 108.102 26.1641ZM108.102 24.625C109.336 24.625 110.133 23.625 110.133 21.8594C110.133 20.1016 109.336 19.0938 108.102 19.0938C106.875 19.0938 106.07 20.1016 106.07 21.8594C106.07 23.625 106.867 24.625 108.102 24.625ZM116.617 26V14.7266H118.539V19.1406H118.578C119.023 18.1328 119.938 17.5625 121.195 17.5625C123.023 17.5625 124.094 18.7656 124.094 20.6641V26H122.148V21.0625C122.148 19.9062 121.57 19.2109 120.445 19.2109C119.273 19.2109 118.562 20.0234 118.562 21.2422V26H116.617ZM128.68 24.6641C129.781 24.6641 130.664 23.9297 130.664 22.9297V22.2969L128.75 22.4141C127.812 22.4766 127.273 22.8984 127.273 23.5547C127.273 24.2344 127.836 24.6641 128.68 24.6641ZM128.094 26.1328C126.492 26.1328 125.328 25.125 125.328 23.6328C125.328 22.1641 126.461 21.2812 128.477 21.1562L130.664 21.0312V20.4375C130.664 19.5703 130.078 19.0703 129.117 19.0703C128.195 19.0703 127.609 19.5156 127.484 20.2031H125.68C125.766 18.6562 127.086 17.5469 129.195 17.5469C131.25 17.5469 132.586 18.6328 132.586 20.2969V26H130.711V24.6797H130.672C130.195 25.5781 129.156 26.1328 128.094 26.1328ZM128.43 16.5703L126.641 14.1562H128.5L129.797 16.5703H128.43ZM134.156 26V17.7188H136.023V19.1406H136.062C136.508 18.1562 137.391 17.5625 138.664 17.5625C140.492 17.5625 141.531 18.7344 141.531 20.6484V26H139.586V21.0391C139.586 19.8672 139.039 19.2109 137.93 19.2109C136.812 19.2109 136.102 20.0156 136.102 21.2031V26H134.156ZM146.75 24.4609C147.992 24.4609 148.797 23.4531 148.797 21.8359C148.797 20.2266 147.992 19.1797 146.75 19.1797C145.523 19.1797 144.742 20.2109 144.742 21.8359C144.742 23.4766 145.523 24.4609 146.75 24.4609ZM146.742 29.125C144.695 29.125 143.227 28.0781 143.031 26.625H144.961C145.172 27.2578 145.883 27.6875 146.805 27.6875C148.07 27.6875 148.797 26.9766 148.797 25.9219V24.5234H148.75C148.32 25.4141 147.344 26.0078 146.156 26.0078C144.109 26.0078 142.75 24.4062 142.75 21.8281C142.75 19.2109 144.078 17.5781 146.195 17.5781C147.375 17.5781 148.328 18.1875 148.805 19.1406H148.836V17.7188H150.742V25.8672C150.742 27.8438 149.156 29.125 146.742 29.125ZM156.07 15.7812H158.016V17.7188H159.578V19.2188H158.016V23.5234C158.016 24.2031 158.328 24.5156 159.016 24.5156C159.195 24.5156 159.445 24.5 159.57 24.4766V25.9609C159.359 26.0078 158.977 26.0391 158.562 26.0391C156.773 26.0391 156.07 25.4062 156.07 23.7969V19.2188H154.883V17.7188H156.07V15.7812ZM164.414 26.1641C161.984 26.1641 160.406 24.5469 160.406 21.8594C160.406 19.1875 162 17.5469 164.414 17.5469C166.828 17.5469 168.422 19.1797 168.422 21.8594C168.422 24.5469 166.844 26.1641 164.414 26.1641ZM164.414 24.625C165.648 24.625 166.445 23.625 166.445 21.8594C166.445 20.1016 165.648 19.0938 164.414 19.0938C163.188 19.0938 162.383 20.1016 162.383 21.8594C162.383 23.625 163.18 24.625 164.414 24.625ZM172.695 24.6641C173.797 24.6641 174.68 23.9297 174.68 22.9297V22.2969L172.766 22.4141C171.828 22.4766 171.289 22.8984 171.289 23.5547C171.289 24.2344 171.852 24.6641 172.695 24.6641ZM172.109 26.1328C170.508 26.1328 169.344 25.125 169.344 23.6328C169.344 22.1641 170.477 21.2812 172.492 21.1562L174.68 21.0312V20.4375C174.68 19.5703 174.094 19.0703 173.133 19.0703C172.211 19.0703 171.625 19.5156 171.5 20.2031H169.695C169.781 18.6562 171.102 17.5469 173.211 17.5469C175.266 17.5469 176.602 18.6328 176.602 20.2969V26H174.727V24.6797H174.688C174.211 25.5781 173.172 26.1328 172.109 26.1328ZM172.445 16.5703L170.656 14.1562H172.516L173.812 16.5703H172.445ZM178.172 26V17.7188H180.039V19.1406H180.078C180.523 18.1562 181.406 17.5625 182.68 17.5625C184.508 17.5625 185.547 18.7344 185.547 20.6484V26H183.602V21.0391C183.602 19.8672 183.055 19.2109 181.945 19.2109C180.828 19.2109 180.117 20.0156 180.117 21.2031V26H178.172ZM193.414 17.5781C194.617 17.5781 195.547 18.2031 196.016 19.1484H196.055V17.7188H197.961V28.7266H196.016V24.6016H195.969C195.539 25.5234 194.57 26.1328 193.375 26.1328C191.297 26.1328 189.969 24.4844 189.969 21.8516C189.969 19.2266 191.305 17.5781 193.414 17.5781ZM193.969 24.5391C195.195 24.5391 196.016 23.4922 196.016 21.8594C196.016 20.2344 195.195 19.1797 193.969 19.1797C192.727 19.1797 191.961 20.2031 191.961 21.8594C191.961 23.5156 192.727 24.5391 193.969 24.5391ZM206.891 17.7188V26H205.016V24.5625H204.977C204.539 25.5703 203.703 26.1484 202.445 26.1484C200.648 26.1484 199.508 24.9844 199.508 23.0703V17.7188H201.453V22.6797C201.453 23.8672 202.031 24.5078 203.125 24.5078C204.25 24.5078 204.945 23.7109 204.945 22.5078V17.7188H206.891ZM212.148 26.1641C209.719 26.1641 208.141 24.5469 208.141 21.8594C208.141 19.1875 209.734 17.5469 212.148 17.5469C214.562 17.5469 216.156 19.1797 216.156 21.8594C216.156 24.5469 214.578 26.1641 212.148 26.1641ZM212.148 24.625C213.383 24.625 214.18 23.625 214.18 21.8594C214.18 20.1016 213.383 19.0938 212.148 19.0938C210.922 19.0938 210.117 20.1016 210.117 21.8594C210.117 23.625 210.914 24.625 212.148 24.625ZM212.898 14.2578L214.984 16.5859H213.406L212.172 15.1875H212.125L210.891 16.5859H209.312L211.398 14.2578H212.898ZM213.438 14L215.055 11.7188H216.727L214.906 14H213.438ZM224.703 20.6719H222.867C222.711 19.7891 222.094 19.125 221.055 19.125C219.828 19.125 219.039 20.1562 219.039 21.8594C219.039 23.5938 219.836 24.5938 221.07 24.5938C222.055 24.5938 222.695 24.0312 222.875 23.0938H224.711C224.555 24.9453 223.125 26.1641 221.047 26.1641C218.625 26.1641 217.062 24.5469 217.062 21.8594C217.062 19.2109 218.625 17.5469 221.031 17.5469C223.219 17.5469 224.57 18.9297 224.703 20.6719Z" fill="#1C1C1E"/>
<path d="M90.6777 51H89.5293V43.3984H89.4814L86.3369 51H85.2979L82.1533 43.3984H82.1055V51H80.957V41.1357H82.3857L85.79 49.4346H85.8447L89.249 41.1357H90.6777V51ZM92.4688 51V43.8906H93.6582V51H92.4688ZM93.0635 42.626C92.6533 42.626 92.3184 42.291 92.3184 41.8809C92.3184 41.4639 92.6533 41.1357 93.0635 41.1357C93.4805 41.1357 93.8086 41.4639 93.8086 41.8809C93.8086 42.291 93.4805 42.626 93.0635 42.626ZM98.1152 44.7998C97.001 44.7998 96.2217 45.6543 96.1465 46.8369H100.009C99.9814 45.6475 99.2363 44.7998 98.1152 44.7998ZM99.9814 48.9629H101.15C100.945 50.207 99.7422 51.123 98.1904 51.123C96.1533 51.123 94.916 49.708 94.916 47.4727C94.916 45.2646 96.1738 43.7676 98.1357 43.7676C100.057 43.7676 101.239 45.1621 101.239 47.3154V47.7666H96.1396V47.835C96.1396 49.1953 96.9395 50.0908 98.2178 50.0908C99.1201 50.0908 99.7832 49.6328 99.9814 48.9629ZM98.6006 40.6914L100.46 42.6055H99.3389L98.1562 41.3887H98.1152L96.9326 42.6055H95.8115L97.6709 40.6914H98.6006ZM99.0312 40.2061C98.1289 40.2061 97.7871 39.1875 97.2471 39.1875C96.9326 39.1875 96.7275 39.5156 96.7549 40.0762H95.9619C95.9619 39.0439 96.4746 38.4355 97.2539 38.4355C98.1426 38.4355 98.4844 39.4541 99.0381 39.4541C99.3389 39.4541 99.5166 39.1396 99.5166 38.5586H100.31C100.31 39.5635 99.7764 40.2061 99.0312 40.2061ZM102.442 51V43.8906H103.563V45.0254H103.591C103.987 44.2598 104.746 43.7676 105.847 43.7676C107.405 43.7676 108.308 44.7725 108.308 46.3857V51H107.118V46.5977C107.118 45.4492 106.578 44.8203 105.484 44.8203C104.363 44.8203 103.632 45.6133 103.632 46.8164V51H102.442ZM116.148 43.7676C117.96 43.7676 119.19 45.2168 119.19 47.4453C119.19 49.6738 117.967 51.123 116.176 51.123C115.157 51.123 114.337 50.624 113.913 49.8447H113.886V53.3721H112.696V43.8906H113.824V45.0938H113.852C114.289 44.2939 115.116 43.7676 116.148 43.7676ZM115.916 50.0771C117.181 50.0771 117.974 49.0586 117.974 47.4453C117.974 45.8389 117.181 44.8135 115.916 44.8135C114.699 44.8135 113.879 45.8662 113.879 47.4453C113.879 49.0312 114.699 50.0771 115.916 50.0771ZM120.455 51V41.1357H121.645V45.0254H121.672C122.068 44.2324 122.848 43.7676 123.928 43.7676C125.486 43.7676 126.43 44.8203 126.43 46.4062V51H125.24V46.625C125.24 45.4971 124.673 44.8203 123.559 44.8203C122.376 44.8203 121.645 45.627 121.645 46.8574V51H120.455ZM128.002 51V43.8906H129.191V51H128.002ZM129.068 42.8652H128.146L129.362 40.8145H130.668L129.068 42.8652ZM136.561 50.0088C137.798 50.0088 138.625 48.9834 138.625 47.418C138.625 45.8525 137.798 44.8135 136.561 44.8135C135.337 44.8135 134.537 45.8252 134.537 47.418C134.537 49.0107 135.337 50.0088 136.561 50.0088ZM136.602 53.6797C135.036 53.6797 133.799 52.7979 133.601 51.5879H134.824C135.057 52.2373 135.761 52.668 136.649 52.668C137.88 52.668 138.625 51.957 138.625 50.8975V49.7764H138.598C138.16 50.5488 137.319 51.0547 136.321 51.0547C134.51 51.0547 133.32 49.626 133.32 47.418C133.32 45.1895 134.51 43.7676 136.349 43.7676C137.354 43.7676 138.188 44.2598 138.659 45.0869H138.68V43.8906H139.814V50.8564C139.814 52.5518 138.563 53.6797 136.602 53.6797ZM141.428 51V43.8906H142.617V51H141.428ZM142.022 42.626C141.612 42.626 141.277 42.291 141.277 41.8809C141.277 41.4639 141.612 41.1357 142.022 41.1357C142.439 41.1357 142.768 41.4639 142.768 41.8809C142.768 42.291 142.439 42.626 142.022 42.626ZM146.568 50.1113C147.689 50.1113 148.551 49.3252 148.551 48.2998V47.7188L146.65 47.835C145.693 47.8965 145.146 48.3203 145.146 48.9902C145.146 49.667 145.714 50.1113 146.568 50.1113ZM146.302 51.123C144.887 51.123 143.937 50.2686 143.937 48.9902C143.937 47.7734 144.873 47.0078 146.514 46.9121L148.551 46.7959V46.2012C148.551 45.333 147.977 44.8135 146.992 44.8135C146.076 44.8135 145.502 45.2441 145.352 45.9414H144.203C144.285 44.7109 145.338 43.7676 147.02 43.7676C148.688 43.7676 149.74 44.6699 149.74 46.085V51H148.612V49.7764H148.585C148.161 50.5898 147.259 51.123 146.302 51.123ZM154.197 51.123C152.229 51.123 150.902 49.708 150.902 47.4453C150.902 45.1758 152.229 43.7676 154.197 43.7676C156.159 43.7676 157.485 45.1758 157.485 47.4453C157.485 49.708 156.159 51.123 154.197 51.123ZM154.197 50.0771C155.455 50.0771 156.275 49.1201 156.275 47.4453C156.275 45.7705 155.455 44.8135 154.197 44.8135C152.939 44.8135 152.112 45.7705 152.112 47.4453C152.112 49.1201 152.939 50.0771 154.197 50.0771ZM161.621 51V41.1357H162.811V45.0254H162.838C163.234 44.2324 164.014 43.7676 165.094 43.7676C166.652 43.7676 167.596 44.8203 167.596 46.4062V51H166.406V46.625C166.406 45.4971 165.839 44.8203 164.725 44.8203C163.542 44.8203 162.811 45.627 162.811 46.8574V51H161.621ZM171.451 50.1113C172.572 50.1113 173.434 49.3252 173.434 48.2998V47.7188L171.533 47.835C170.576 47.8965 170.029 48.3203 170.029 48.9902C170.029 49.667 170.597 50.1113 171.451 50.1113ZM171.185 51.123C169.77 51.123 168.819 50.2686 168.819 48.9902C168.819 47.7734 169.756 47.0078 171.396 46.9121L173.434 46.7959V46.2012C173.434 45.333 172.859 44.8135 171.875 44.8135C170.959 44.8135 170.385 45.2441 170.234 45.9414H169.086C169.168 44.7109 170.221 43.7676 171.902 43.7676C173.57 43.7676 174.623 44.6699 174.623 46.085V51H173.495V49.7764H173.468C173.044 50.5898 172.142 51.123 171.185 51.123ZM171.349 42.8652L169.749 40.8145H171.055L172.271 42.8652H171.349ZM176.134 51V43.8906H177.255V45.0254H177.282C177.679 44.2598 178.438 43.7676 179.538 43.7676C181.097 43.7676 181.999 44.7725 181.999 46.3857V51H180.81V46.5977C180.81 45.4492 180.27 44.8203 179.176 44.8203C178.055 44.8203 177.323 45.6133 177.323 46.8164V51H176.134ZM186.408 50.0088C187.646 50.0088 188.473 48.9834 188.473 47.418C188.473 45.8525 187.646 44.8135 186.408 44.8135C185.185 44.8135 184.385 45.8252 184.385 47.418C184.385 49.0107 185.185 50.0088 186.408 50.0088ZM186.449 53.6797C184.884 53.6797 183.646 52.7979 183.448 51.5879H184.672C184.904 52.2373 185.608 52.668 186.497 52.668C187.728 52.668 188.473 51.957 188.473 50.8975V49.7764H188.445C188.008 50.5488 187.167 51.0547 186.169 51.0547C184.357 51.0547 183.168 49.626 183.168 47.418C183.168 45.1895 184.357 43.7676 186.196 43.7676C187.201 43.7676 188.035 44.2598 188.507 45.0869H188.527V43.8906H189.662V50.8564C189.662 52.5518 188.411 53.6797 186.449 53.6797ZM194.468 42.1748H195.657V43.8906H197.038V44.8682H195.657V49.0928C195.657 49.7422 195.931 50.0361 196.539 50.0361C196.676 50.0361 196.949 50.0156 197.031 50.002V51C196.888 51.0342 196.56 51.0547 196.279 51.0547C194.974 51.0547 194.468 50.5215 194.468 49.1543V44.8682H193.408V43.8906H194.468V42.1748ZM200.518 50.1113C201.639 50.1113 202.5 49.3252 202.5 48.2998V47.7188L200.6 47.835C199.643 47.8965 199.096 48.3203 199.096 48.9902C199.096 49.667 199.663 50.1113 200.518 50.1113ZM200.251 51.123C198.836 51.123 197.886 50.2686 197.886 48.9902C197.886 47.7734 198.822 47.0078 200.463 46.9121L202.5 46.7959V46.2012C202.5 45.333 201.926 44.8135 200.941 44.8135C200.025 44.8135 199.451 45.2441 199.301 45.9414H198.152C198.234 44.7109 199.287 43.7676 200.969 43.7676C202.637 43.7676 203.689 44.6699 203.689 46.085V51H202.562V49.7764H202.534C202.11 50.5898 201.208 51.123 200.251 51.123ZM200.791 53.4336C200.381 53.4336 200.046 53.0986 200.046 52.6885C200.046 52.2715 200.381 51.9434 200.791 51.9434C201.208 51.9434 201.536 52.2715 201.536 52.6885C201.536 53.0986 201.208 53.4336 200.791 53.4336ZM205.262 51V43.8906H206.451V51H205.262ZM205.856 42.626C205.446 42.626 205.111 42.291 205.111 41.8809C205.111 41.4639 205.446 41.1357 205.856 41.1357C206.273 41.1357 206.602 41.4639 206.602 41.8809C206.602 42.291 206.273 42.626 205.856 42.626ZM218.988 51H217.758V46.5088H212.344V51H211.113V41.1357H212.344V45.4014H217.758V41.1357H218.988V51ZM222.857 50.1113C223.979 50.1113 224.84 49.3252 224.84 48.2998V47.7188L222.939 47.835C221.982 47.8965 221.436 48.3203 221.436 48.9902C221.436 49.667 222.003 50.1113 222.857 50.1113ZM222.591 51.123C221.176 51.123 220.226 50.2686 220.226 48.9902C220.226 47.7734 221.162 47.0078 222.803 46.9121L224.84 46.7959V46.2012C224.84 45.333 224.266 44.8135 223.281 44.8135C222.365 44.8135 221.791 45.2441 221.641 45.9414H220.492C220.574 44.7109 221.627 43.7676 223.309 43.7676C224.977 43.7676 226.029 44.6699 226.029 46.085V51H224.901V49.7764H224.874C224.45 50.5898 223.548 51.123 222.591 51.123ZM222.755 42.8652L221.155 40.8145H222.461L223.678 42.8652H222.755ZM231.812 51H230.596V41.1357H231.792L237.192 48.8809H237.254V41.1357H238.471V51H237.274L231.874 43.2822H231.812V51ZM243.146 51.123C241.178 51.123 239.852 49.708 239.852 47.4453C239.852 45.1758 241.178 43.7676 243.146 43.7676C245.108 43.7676 246.435 45.1758 246.435 47.4453C246.435 49.708 245.108 51.123 243.146 51.123ZM243.146 50.0771C244.404 50.0771 245.225 49.1201 245.225 47.4453C245.225 45.7705 244.404 44.8135 243.146 44.8135C241.889 44.8135 241.062 45.7705 241.062 47.4453C241.062 49.1201 241.889 50.0771 243.146 50.0771ZM243.604 40.8145L245.307 42.8652H244.227L243.167 41.5732H243.126L242.066 42.8652H240.986L242.688 40.8145H243.604ZM243.146 53.4336C242.736 53.4336 242.401 53.0986 242.401 52.6885C242.401 52.2715 242.736 51.9434 243.146 51.9434C243.563 51.9434 243.892 52.2715 243.892 52.6885C243.892 53.0986 243.563 53.4336 243.146 53.4336ZM247.699 51V43.8906H248.889V51H247.699ZM248.294 42.626C247.884 42.626 247.549 42.291 247.549 41.8809C247.549 41.4639 247.884 41.1357 248.294 41.1357C248.711 41.1357 249.039 41.4639 249.039 41.8809C249.039 42.291 248.711 42.626 248.294 42.626Z" fill="#636366"/>
</svg>
