<svg width="317" height="64" viewBox="0 0 317 64" fill="none" xmlns="http://www.w3.org/2000/svg">
<rect x="0.7" y="0.7" width="62.6" height="62.6" rx="31.3" stroke="#D1D1D6" stroke-width="1.4"/>
<g clip-path="url(#clip0_3412_2438)">
<path d="M18.4497 18.45L16.9997 17C16.358 21.4833 16.583 19.9 16.1664 22.8333L22.4164 22.4167L20.808 20.8083C23.3993 18.219 26.8082 16.6083 30.454 16.2507C34.0997 15.893 37.7566 16.8106 40.8017 18.8471C43.8467 20.8835 46.0914 23.9128 47.1532 27.4187C48.2151 30.9247 48.0284 34.6904 46.6251 38.0741C45.2217 41.4579 42.6884 44.2503 39.4569 45.9756C36.2254 47.701 32.4956 48.2524 28.9032 47.5359C25.3107 46.8195 22.0777 44.8796 19.7552 42.0467C17.4328 39.2138 16.1644 35.6632 16.1664 32H12.833C12.6706 37.0833 14.5341 42.0229 18.0137 45.7323C21.4933 49.4416 26.3039 51.6167 31.3872 51.7792C36.4705 51.9416 41.4102 50.078 45.1195 46.5985C48.8288 43.1189 51.0039 38.3083 51.1664 33.225C52.233 15.5417 30.8247 6.07499 18.4497 18.45Z" fill="#636366"/>
<path d="M22.5242 24.0833L20.1492 24.2333C18.195 27.2044 17.4296 30.8019 18.0052 34.3112C18.5807 37.8205 20.4551 40.985 23.256 43.1763C26.057 45.3675 29.5796 46.4251 33.1243 46.1392C36.669 45.8532 39.9765 44.2445 42.3899 41.6326C44.8033 39.0207 46.1462 35.5967 46.1517 32.0405C46.1573 28.4843 44.8251 25.056 42.4198 22.4366C40.0146 19.8172 36.7121 18.1982 33.1683 17.9012C29.6245 17.6042 26.0986 18.6508 23.2909 20.8333C23.1909 20.8333 23.2159 20.8333 23.5909 21.2416C23.8173 21.468 23.9738 21.7548 24.0415 22.0677C24.1093 22.3806 24.0855 22.7064 23.973 23.0061C23.8605 23.3058 23.664 23.5668 23.4071 23.7578C23.1502 23.9489 22.8437 24.0619 22.5242 24.0833ZM34.4992 35.05C34.2409 33.4833 32.4159 33.6666 31.4159 33.6666C30.0981 33.696 28.8192 33.219 27.8425 32.3338C26.8659 31.4486 26.2658 30.2226 26.1659 28.9083C26.1082 27.6865 26.5004 26.486 27.2683 25.5339C28.0361 24.5818 29.1263 23.9441 30.3326 23.7416C30.3326 21.85 30.2242 21.4083 30.8242 20.825C31.0573 20.5933 31.3536 20.4357 31.676 20.372C31.9984 20.3082 32.3324 20.3412 32.6361 20.4668C32.9398 20.5924 33.1996 20.8049 33.3828 21.0777C33.566 21.3505 33.6645 21.6714 33.6659 22V23.6666H36.1659C36.3848 23.6727 36.6003 23.7217 36.8002 23.8111C37.0001 23.9004 37.1805 24.0282 37.331 24.1872C37.4815 24.3462 37.5992 24.5333 37.6774 24.7378C37.7556 24.9424 37.7927 25.1603 37.7867 25.3791C37.7807 25.598 37.7316 25.8136 37.6423 26.0135C37.553 26.2134 37.4252 26.3937 37.2662 26.5442C37.1071 26.6947 36.92 26.8125 36.7155 26.8906C36.511 26.9688 36.2931 27.006 36.0742 27H31.1659C30.921 26.9964 30.6783 27.0469 30.4552 27.1477C30.232 27.2486 30.0338 27.3974 29.8746 27.5836C29.7155 27.7698 29.5994 27.9887 29.5345 28.2249C29.4696 28.4611 29.4576 28.7086 29.4992 28.95C29.7576 30.5166 31.5826 30.3333 32.5826 30.3333C33.9004 30.3039 35.1793 30.7809 36.1559 31.6661C37.1326 32.5513 37.7326 33.7773 37.8326 35.0916C37.8902 36.3134 37.498 37.514 36.7302 38.4661C35.9624 39.4182 34.8722 40.0558 33.6659 40.2583C33.6659 42.15 33.7742 42.5916 33.1742 43.175C32.9412 43.4067 32.6448 43.5643 32.3224 43.628C32.0001 43.6917 31.666 43.6587 31.3624 43.5332C31.0587 43.4076 30.7989 43.1951 30.6157 42.9223C30.4324 42.6495 30.3339 42.3286 30.3326 42V40.3333H27.8326C27.6137 40.3273 27.3981 40.2782 27.1982 40.1889C26.9983 40.0996 26.818 39.9718 26.6675 39.8127C26.517 39.6537 26.3993 39.4666 26.3211 39.2621C26.2429 39.0576 26.2057 38.8397 26.2117 38.6208C26.2177 38.4019 26.2668 38.1864 26.3561 37.9865C26.4455 37.7866 26.5733 37.6062 26.7323 37.4557C26.8913 37.3052 27.0784 37.1875 27.2829 37.1093C27.4874 37.0311 27.7054 36.994 27.9242 37H32.8326C33.0775 37.0035 33.3201 36.9531 33.5433 36.8522C33.7665 36.7514 33.9647 36.6025 34.1238 36.4164C34.2829 36.2302 34.3991 36.0112 34.464 35.7751C34.5288 35.5389 34.5409 35.2913 34.4992 35.05Z" fill="#636366"/>
</g>
<path d="M85.8516 26.1875C82.6328 26.1875 80.6094 23.9766 80.6094 20.3594C80.6094 16.7656 82.6484 14.5391 85.8516 14.5391C88.4688 14.5391 90.4609 16.1719 90.7109 18.5938H88.7266C88.4609 17.1797 87.3125 16.25 85.8516 16.25C83.9141 16.25 82.6719 17.8438 82.6719 20.3594C82.6719 22.8906 83.9062 24.4766 85.8594 24.4766C87.3516 24.4766 88.4219 23.6719 88.7344 22.3125H90.7109C90.3594 24.7266 88.5156 26.1875 85.8516 26.1875ZM92.1016 26V14.7266H94.0234V19.1406H94.0625C94.5078 18.1328 95.4219 17.5625 96.6797 17.5625C98.5078 17.5625 99.5781 18.7656 99.5781 20.6641V26H97.6328V21.0625C97.6328 19.9062 97.0547 19.2109 95.9297 19.2109C94.7578 19.2109 94.0469 20.0234 94.0469 21.2422V26H92.1016ZM101.188 26V17.7188H103.133V26H101.188ZM102.844 16.5703H101.477L102.773 14.1562H104.633L102.844 16.5703ZM104.766 26V17.7188H106.633V19.1406H106.672C107.117 18.1562 108 17.5625 109.273 17.5625C111.102 17.5625 112.141 18.7344 112.141 20.6484V26H110.195V21.0391C110.195 19.8672 109.648 19.2109 108.539 19.2109C107.422 19.2109 106.711 20.0156 106.711 21.2031V26H104.766ZM113.758 26V14.7266H115.68V19.1406H115.719C116.164 18.1328 117.078 17.5625 118.336 17.5625C120.164 17.5625 121.234 18.7656 121.234 20.6641V26H119.289V21.0625C119.289 19.9062 118.711 19.2109 117.586 19.2109C116.414 19.2109 115.703 20.0234 115.703 21.2422V26H113.758ZM125.852 20.0938C125.852 18.5781 127.172 17.5469 129.172 17.5469C131.188 17.5469 132.469 18.6328 132.516 20.2031H130.703C130.625 19.4531 130.07 18.9766 129.172 18.9766C128.312 18.9766 127.742 19.3828 127.742 19.9922C127.742 20.4688 128.086 20.7969 128.953 20.9922L130.328 21.2969C132.047 21.6797 132.711 22.3438 132.711 23.5469C132.711 25.1094 131.273 26.1641 129.242 26.1641C127.078 26.1641 125.797 25.1328 125.641 23.5312H127.555C127.703 24.3359 128.258 24.7422 129.242 24.7422C130.188 24.7422 130.773 24.3516 130.773 23.7344C130.773 23.2344 130.477 22.9531 129.609 22.7578L128.234 22.4531C126.648 22.1016 125.852 21.3203 125.852 20.0938ZM136.977 24.6641C138.078 24.6641 138.961 23.9297 138.961 22.9297V22.2969L137.047 22.4141C136.109 22.4766 135.57 22.8984 135.57 23.5547C135.57 24.2344 136.133 24.6641 136.977 24.6641ZM136.391 26.1328C134.789 26.1328 133.625 25.125 133.625 23.6328C133.625 22.1641 134.758 21.2812 136.773 21.1562L138.961 21.0312V20.4375C138.961 19.5703 138.375 19.0703 137.414 19.0703C136.492 19.0703 135.906 19.5156 135.781 20.2031H133.977C134.062 18.6562 135.383 17.5469 137.492 17.5469C139.547 17.5469 140.883 18.6328 140.883 20.2969V26H139.008V24.6797H138.969C138.492 25.5781 137.453 26.1328 136.391 26.1328ZM138.102 16.5703H136.734L138.031 14.1562H139.891L138.102 16.5703ZM149.75 20.6719H147.914C147.758 19.7891 147.141 19.125 146.102 19.125C144.875 19.125 144.086 20.1562 144.086 21.8594C144.086 23.5938 144.883 24.5938 146.117 24.5938C147.102 24.5938 147.742 24.0312 147.922 23.0938H149.758C149.602 24.9453 148.172 26.1641 146.094 26.1641C143.672 26.1641 142.109 24.5469 142.109 21.8594C142.109 19.2109 143.672 17.5469 146.078 17.5469C148.266 17.5469 149.617 18.9297 149.75 20.6719ZM150.977 26V14.7266H152.898V19.1406H152.938C153.383 18.1328 154.297 17.5625 155.555 17.5625C157.383 17.5625 158.453 18.7656 158.453 20.6641V26H156.508V21.0625C156.508 19.9062 155.93 19.2109 154.805 19.2109C153.633 19.2109 152.922 20.0234 152.922 21.2422V26H150.977ZM163.273 26V14.7266H165.195V19.1406H165.234C165.68 18.1328 166.594 17.5625 167.852 17.5625C169.68 17.5625 170.75 18.7656 170.75 20.6641V26H168.805V21.0625C168.805 19.9062 168.227 19.2109 167.102 19.2109C165.93 19.2109 165.219 20.0234 165.219 21.2422V26H163.273ZM175.977 26.1641C173.547 26.1641 171.969 24.5469 171.969 21.8594C171.969 19.1875 173.562 17.5469 175.977 17.5469C178.391 17.5469 179.984 19.1797 179.984 21.8594C179.984 24.5469 178.406 26.1641 175.977 26.1641ZM175.977 24.625C177.211 24.625 178.008 23.625 178.008 21.8594C178.008 20.1016 177.211 19.0938 175.977 19.0938C174.75 19.0938 173.945 20.1016 173.945 21.8594C173.945 23.625 174.742 24.625 175.977 24.625ZM184.258 24.6641C185.359 24.6641 186.242 23.9297 186.242 22.9297V22.2969L184.328 22.4141C183.391 22.4766 182.852 22.8984 182.852 23.5547C182.852 24.2344 183.414 24.6641 184.258 24.6641ZM183.672 26.1328C182.07 26.1328 180.906 25.125 180.906 23.6328C180.906 22.1641 182.039 21.2812 184.055 21.1562L186.242 21.0312V20.4375C186.242 19.5703 185.656 19.0703 184.695 19.0703C183.773 19.0703 183.188 19.5156 183.062 20.2031H181.258C181.344 18.6562 182.664 17.5469 184.773 17.5469C186.828 17.5469 188.164 18.6328 188.164 20.2969V26H186.289V24.6797H186.25C185.773 25.5781 184.734 26.1328 183.672 26.1328ZM184.008 16.5703L182.219 14.1562H184.078L185.375 16.5703H184.008ZM189.734 26V17.7188H191.602V19.1406H191.641C192.086 18.1562 192.969 17.5625 194.242 17.5625C196.07 17.5625 197.109 18.7344 197.109 20.6484V26H195.164V21.0391C195.164 19.8672 194.617 19.2109 193.508 19.2109C192.391 19.2109 191.68 20.0156 191.68 21.2031V26H189.734ZM202.414 15.7812H204.359V17.7188H205.922V19.2188H204.359V23.5234C204.359 24.2031 204.672 24.5156 205.359 24.5156C205.539 24.5156 205.789 24.5 205.914 24.4766V25.9609C205.703 26.0078 205.32 26.0391 204.906 26.0391C203.117 26.0391 202.414 25.4062 202.414 23.7969V19.2188H201.227V17.7188H202.414V15.7812ZM207.297 26V17.7188H209.242V26H207.297ZM208.258 16.4688C207.672 16.4688 207.195 15.9922 207.195 15.4141C207.195 14.8281 207.672 14.3594 208.258 14.3594C208.859 14.3594 209.328 14.8281 209.328 15.4141C209.328 15.9922 208.859 16.4688 208.258 16.4688ZM214.445 19.0547C213.352 19.0547 212.562 19.8906 212.484 21.0469H216.352C216.312 19.875 215.562 19.0547 214.445 19.0547ZM216.359 23.5234H218.18C217.93 25.0859 216.477 26.1641 214.516 26.1641C212.031 26.1641 210.531 24.5312 210.531 21.8906C210.531 19.2734 212.047 17.5469 214.438 17.5469C216.789 17.5469 218.258 19.1797 218.258 21.6953V22.3281H212.469V22.4453C212.469 23.7734 213.281 24.6641 214.555 24.6641C215.461 24.6641 216.148 24.2109 216.359 23.5234ZM215.188 14.2578L217.273 16.5859H215.695L214.461 15.1875H214.414L213.18 16.5859H211.602L213.688 14.2578H215.188ZM217.758 14H216.289L214.469 11.7188H216.141L217.758 14ZM219.516 26V17.7188H221.383V19.1406H221.422C221.867 18.1562 222.75 17.5625 224.023 17.5625C225.852 17.5625 226.891 18.7344 226.891 20.6484V26H224.945V21.0391C224.945 19.8672 224.398 19.2109 223.289 19.2109C222.172 19.2109 221.461 20.0156 221.461 21.2031V26H219.516Z" fill="#1C1C1E"/>
<path d="M88.832 51H87.6016V46.5088H82.1875V51H80.957V41.1357H82.1875V45.4014H87.6016V41.1357H88.832V51ZM93.5078 51.123C91.5391 51.123 90.2129 49.708 90.2129 47.4453C90.2129 45.1758 91.5391 43.7676 93.5078 43.7676C95.4697 43.7676 96.7959 45.1758 96.7959 47.4453C96.7959 49.708 95.4697 51.123 93.5078 51.123ZM93.5078 50.0771C94.7656 50.0771 95.5859 49.1201 95.5859 47.4453C95.5859 45.7705 94.7656 44.8135 93.5078 44.8135C92.25 44.8135 91.4229 45.7705 91.4229 47.4453C91.4229 49.1201 92.25 50.0771 93.5078 50.0771ZM100.344 50.1113C101.465 50.1113 102.326 49.3252 102.326 48.2998V47.7188L100.426 47.835C99.4688 47.8965 98.9219 48.3203 98.9219 48.9902C98.9219 49.667 99.4893 50.1113 100.344 50.1113ZM100.077 51.123C98.6621 51.123 97.7119 50.2686 97.7119 48.9902C97.7119 47.7734 98.6484 47.0078 100.289 46.9121L102.326 46.7959V46.2012C102.326 45.333 101.752 44.8135 100.768 44.8135C99.8516 44.8135 99.2773 45.2441 99.127 45.9414H97.9785C98.0605 44.7109 99.1133 43.7676 100.795 43.7676C102.463 43.7676 103.516 44.6699 103.516 46.085V51H102.388V49.7764H102.36C101.937 50.5898 101.034 51.123 100.077 51.123ZM100.241 42.8652L98.6416 40.8145H99.9473L101.164 42.8652H100.241ZM105.026 51V43.8906H106.147V45.0254H106.175C106.571 44.2598 107.33 43.7676 108.431 43.7676C109.989 43.7676 110.892 44.7725 110.892 46.3857V51H109.702V46.5977C109.702 45.4492 109.162 44.8203 108.068 44.8203C106.947 44.8203 106.216 45.6133 106.216 46.8164V51H105.026ZM115.663 42.1748H116.853V43.8906H118.233V44.8682H116.853V49.0928C116.853 49.7422 117.126 50.0361 117.734 50.0361C117.871 50.0361 118.145 50.0156 118.227 50.002V51C118.083 51.0342 117.755 51.0547 117.475 51.0547C116.169 51.0547 115.663 50.5215 115.663 49.1543V44.8682H114.604V43.8906H115.663V42.1748ZM119.566 51V43.8906H120.756V51H119.566ZM120.161 42.626C119.751 42.626 119.416 42.291 119.416 41.8809C119.416 41.4639 119.751 41.1357 120.161 41.1357C120.578 41.1357 120.906 41.4639 120.906 41.8809C120.906 42.291 120.578 42.626 120.161 42.626ZM125.213 44.7998C124.099 44.7998 123.319 45.6543 123.244 46.8369H127.106C127.079 45.6475 126.334 44.7998 125.213 44.7998ZM127.079 48.9629H128.248C128.043 50.207 126.84 51.123 125.288 51.123C123.251 51.123 122.014 49.708 122.014 47.4727C122.014 45.2646 123.271 43.7676 125.233 43.7676C127.154 43.7676 128.337 45.1621 128.337 47.3154V47.7666H123.237V47.835C123.237 49.1953 124.037 50.0908 125.315 50.0908C126.218 50.0908 126.881 49.6328 127.079 48.9629ZM125.698 40.9512L127.558 42.8652H126.437L125.254 41.6484H125.213L124.03 42.8652H122.909L124.769 40.9512H125.698ZM127.906 40.8008H126.936L125.356 38.7773H126.478L127.906 40.8008ZM129.54 51V43.8906H130.661V45.0254H130.688C131.085 44.2598 131.844 43.7676 132.944 43.7676C134.503 43.7676 135.405 44.7725 135.405 46.3857V51H134.216V46.5977C134.216 45.4492 133.676 44.8203 132.582 44.8203C131.461 44.8203 130.729 45.6133 130.729 46.8164V51H129.54ZM142.337 51V42.4414H142.31L139.698 44.2598V43.0225L142.323 41.1357H143.526V51H142.337ZM149.48 51.1641C147.177 51.1641 145.844 49.1816 145.844 46.0645C145.844 42.9746 147.19 40.9717 149.48 40.9717C151.771 40.9717 153.104 42.9609 153.104 46.0576C153.104 49.1748 151.777 51.1641 149.48 51.1641ZM149.48 50.0908C151.019 50.0908 151.866 48.5254 151.866 46.0645C151.866 43.6377 151.005 42.0518 149.48 42.0518C147.956 42.0518 147.081 43.6514 147.081 46.0576C147.081 48.5186 147.936 50.0908 149.48 50.0908ZM157.971 51.1641C155.667 51.1641 154.334 49.1816 154.334 46.0645C154.334 42.9746 155.681 40.9717 157.971 40.9717C160.261 40.9717 161.594 42.9609 161.594 46.0576C161.594 49.1748 160.268 51.1641 157.971 51.1641ZM157.971 50.0908C159.509 50.0908 160.356 48.5254 160.356 46.0645C160.356 43.6377 159.495 42.0518 157.971 42.0518C156.446 42.0518 155.571 43.6514 155.571 46.0576C155.571 48.5186 156.426 50.0908 157.971 50.0908ZM164.602 45.6611C163.357 45.6611 162.523 44.7314 162.523 43.3438C162.523 41.9492 163.357 41.0195 164.602 41.0195C165.846 41.0195 166.673 41.9492 166.673 43.3438C166.673 44.7314 165.846 45.6611 164.602 45.6611ZM164.602 44.8477C165.312 44.8477 165.784 44.2461 165.784 43.3438C165.784 42.4414 165.312 41.8398 164.602 41.8398C163.891 41.8398 163.412 42.4414 163.412 43.3438C163.412 44.2461 163.891 44.8477 164.602 44.8477ZM164.8 51H163.679L170.556 41.1357H171.663L164.8 51ZM170.747 51.1094C169.503 51.1094 168.669 50.1797 168.669 48.792C168.669 47.3975 169.503 46.4678 170.747 46.4678C171.991 46.4678 172.818 47.3975 172.818 48.792C172.818 50.1797 171.991 51.1094 170.747 51.1094ZM170.747 50.2959C171.458 50.2959 171.93 49.6943 171.93 48.792C171.93 47.8896 171.458 47.2881 170.747 47.2881C170.036 47.2881 169.558 47.8896 169.558 48.792C169.558 49.6943 170.036 50.2959 170.747 50.2959ZM176.776 51V43.8906H177.897V45.0254H177.925C178.321 44.2598 179.08 43.7676 180.181 43.7676C181.739 43.7676 182.642 44.7725 182.642 46.3857V51H181.452V46.5977C181.452 45.4492 180.912 44.8203 179.818 44.8203C178.697 44.8203 177.966 45.6133 177.966 46.8164V51H176.776ZM187.01 44.7998C185.896 44.7998 185.116 45.6543 185.041 46.8369H188.903C188.876 45.6475 188.131 44.7998 187.01 44.7998ZM188.876 48.9629H190.045C189.84 50.207 188.637 51.123 187.085 51.123C185.048 51.123 183.811 49.708 183.811 47.4727C183.811 45.2646 185.068 43.7676 187.03 43.7676C188.951 43.7676 190.134 45.1621 190.134 47.3154V47.7666H185.034V47.835C185.034 49.1953 185.834 50.0908 187.112 50.0908C188.015 50.0908 188.678 49.6328 188.876 48.9629ZM187.495 40.9512L189.354 42.8652H188.233L187.051 41.6484H187.01L185.827 42.8652H184.706L186.565 40.9512H187.495ZM188.261 40.8008L189.689 38.7773H190.811L189.231 40.8008H188.261ZM197.175 43.8906V51H196.047V49.8447H196.02C195.596 50.665 194.857 51.123 193.764 51.123C192.212 51.123 191.303 50.1182 191.303 48.5049V43.8906H192.492V48.293C192.492 49.4482 193.032 50.0703 194.133 50.0703C195.288 50.0703 195.985 49.2773 195.985 48.0674V43.8906H197.175ZM201.468 45.8525C201.468 44.6357 202.541 43.7676 204.079 43.7676C205.638 43.7676 206.677 44.6836 206.725 45.9414H205.59C205.501 45.1963 204.954 44.7383 204.079 44.7383C203.211 44.7383 202.637 45.1689 202.637 45.791C202.637 46.2832 202.999 46.6182 203.792 46.8096L204.92 47.083C206.355 47.4316 206.875 47.9922 206.875 49.0107C206.875 50.248 205.706 51.123 204.12 51.123C202.452 51.123 201.413 50.2822 201.276 48.9492H202.466C202.609 49.7627 203.156 50.1523 204.12 50.1523C205.084 50.1523 205.679 49.7422 205.679 49.0996C205.679 48.5869 205.398 48.293 204.585 48.0947L203.457 47.8213C202.117 47.5 201.468 46.8779 201.468 45.8525ZM210.457 50.1113C211.578 50.1113 212.439 49.3252 212.439 48.2998V47.7188L210.539 47.835C209.582 47.8965 209.035 48.3203 209.035 48.9902C209.035 49.667 209.603 50.1113 210.457 50.1113ZM210.19 51.123C208.775 51.123 207.825 50.2686 207.825 48.9902C207.825 47.7734 208.762 47.0078 210.402 46.9121L212.439 46.7959V46.2012C212.439 45.333 211.865 44.8135 210.881 44.8135C209.965 44.8135 209.391 45.2441 209.24 45.9414H208.092C208.174 44.7109 209.227 43.7676 210.908 43.7676C212.576 43.7676 213.629 44.6699 213.629 46.085V51H212.501V49.7764H212.474C212.05 50.5898 211.147 51.123 210.19 51.123ZM210.02 41.498V40.7803C210.313 40.6572 210.566 40.6094 210.936 40.6094C211.715 40.6094 212.221 41.0811 212.221 41.8057C212.221 42.3799 211.783 42.9062 211.113 43.1455L210.696 42.5713C211.127 42.4277 211.325 42.2021 211.325 41.8535C211.325 41.5664 211.059 41.334 210.717 41.334C210.478 41.334 210.32 41.3682 210.02 41.498ZM215.14 51V43.8906H216.261V45.0254H216.288C216.685 44.2598 217.443 43.7676 218.544 43.7676C220.103 43.7676 221.005 44.7725 221.005 46.3857V51H219.815V46.5977C219.815 45.4492 219.275 44.8203 218.182 44.8203C217.061 44.8203 216.329 45.6133 216.329 46.8164V51H215.14ZM228.846 43.7676C230.657 43.7676 231.888 45.2168 231.888 47.4453C231.888 49.6738 230.664 51.123 228.873 51.123C227.854 51.123 227.034 50.624 226.61 49.8447H226.583V53.3721H225.394V43.8906H226.521V45.0938H226.549C226.986 44.2939 227.813 43.7676 228.846 43.7676ZM228.613 50.0771C229.878 50.0771 230.671 49.0586 230.671 47.4453C230.671 45.8389 229.878 44.8135 228.613 44.8135C227.396 44.8135 226.576 45.8662 226.576 47.4453C226.576 49.0312 227.396 50.0771 228.613 50.0771ZM233.152 51V41.1357H234.342V45.0254H234.369C234.766 44.2324 235.545 43.7676 236.625 43.7676C238.184 43.7676 239.127 44.8203 239.127 46.4062V51H237.938V46.625C237.938 45.4971 237.37 44.8203 236.256 44.8203C235.073 44.8203 234.342 45.627 234.342 46.8574V51H233.152ZM242.982 50.1113C244.104 50.1113 244.965 49.3252 244.965 48.2998V47.7188L243.064 47.835C242.107 47.8965 241.561 48.3203 241.561 48.9902C241.561 49.667 242.128 50.1113 242.982 50.1113ZM242.716 51.123C241.301 51.123 240.351 50.2686 240.351 48.9902C240.351 47.7734 241.287 47.0078 242.928 46.9121L244.965 46.7959V46.2012C244.965 45.333 244.391 44.8135 243.406 44.8135C242.49 44.8135 241.916 45.2441 241.766 45.9414H240.617C240.699 44.7109 241.752 43.7676 243.434 43.7676C245.102 43.7676 246.154 44.6699 246.154 46.085V51H245.026V49.7764H244.999C244.575 50.5898 243.673 51.123 242.716 51.123ZM243.946 39.5908V38.9277C244.104 38.8389 244.432 38.7705 244.698 38.7705C245.498 38.7705 246.011 39.208 246.011 39.8848C246.011 40.4727 245.669 40.917 245.074 41.1084L244.603 40.6299C244.979 40.4932 245.204 40.2334 245.204 39.9395C245.204 39.666 244.951 39.4609 244.623 39.4609C244.384 39.4609 244.172 39.502 243.946 39.5908ZM243.816 40.9512L245.676 42.8652H244.555L243.372 41.6484H243.331L242.148 42.8652H241.027L242.887 40.9512H243.816ZM247.665 51V43.8906H248.786V45.0254H248.813C249.148 44.2734 249.873 43.7676 250.83 43.7676C251.801 43.7676 252.519 44.2598 252.826 45.1211H252.854C253.25 44.2734 254.084 43.7676 255.082 43.7676C256.49 43.7676 257.399 44.6836 257.399 46.0918V51H256.21V46.3652C256.21 45.3945 255.67 44.8203 254.733 44.8203C253.79 44.8203 253.127 45.5176 253.127 46.4814V51H251.938V46.2354C251.938 45.3809 251.363 44.8203 250.481 44.8203C249.538 44.8203 248.854 45.5586 248.854 46.543V51H247.665ZM263.039 47.0488L266.184 43.8906H267.626L264.543 46.96L267.722 51H266.341L263.702 47.6914L263.039 48.3203V51H261.85V41.1357H263.039V47.0488ZM268.645 51V41.1357H269.834V45.0254H269.861C270.258 44.2324 271.037 43.7676 272.117 43.7676C273.676 43.7676 274.619 44.8203 274.619 46.4062V51H273.43V46.625C273.43 45.4971 272.862 44.8203 271.748 44.8203C270.565 44.8203 269.834 45.627 269.834 46.8574V51H268.645ZM279.076 51.123C277.107 51.123 275.781 49.708 275.781 47.4453C275.781 45.1758 277.107 43.7676 279.076 43.7676C281.038 43.7676 282.364 45.1758 282.364 47.4453C282.364 49.708 281.038 51.123 279.076 51.123ZM279.076 50.0771C280.334 50.0771 281.154 49.1201 281.154 47.4453C281.154 45.7705 280.334 44.8135 279.076 44.8135C277.818 44.8135 276.991 45.7705 276.991 47.4453C276.991 49.1201 277.818 50.0771 279.076 50.0771ZM279.534 40.8145L281.236 42.8652H280.156L279.097 41.5732H279.056L277.996 42.8652H276.916L278.618 40.8145H279.534ZM283.567 51V43.8906H284.688V45.0254H284.716C285.112 44.2598 285.871 43.7676 286.972 43.7676C288.53 43.7676 289.433 44.7725 289.433 46.3857V51H288.243V46.5977C288.243 45.4492 287.703 44.8203 286.609 44.8203C285.488 44.8203 284.757 45.6133 284.757 46.8164V51H283.567ZM293.842 50.0088C295.079 50.0088 295.906 48.9834 295.906 47.418C295.906 45.8525 295.079 44.8135 293.842 44.8135C292.618 44.8135 291.818 45.8252 291.818 47.418C291.818 49.0107 292.618 50.0088 293.842 50.0088ZM293.883 53.6797C292.317 53.6797 291.08 52.7979 290.882 51.5879H292.105C292.338 52.2373 293.042 52.668 293.931 52.668C295.161 52.668 295.906 51.957 295.906 50.8975V49.7764H295.879C295.441 50.5488 294.601 51.0547 293.603 51.0547C291.791 51.0547 290.602 49.626 290.602 47.418C290.602 45.1895 291.791 43.7676 293.63 43.7676C294.635 43.7676 295.469 44.2598 295.94 45.0869H295.961V43.8906H297.096V50.8564C297.096 52.5518 295.845 53.6797 293.883 53.6797ZM301.901 42.1748H303.091V43.8906H304.472V44.8682H303.091V49.0928C303.091 49.7422 303.364 50.0361 303.973 50.0361C304.109 50.0361 304.383 50.0156 304.465 50.002V51C304.321 51.0342 303.993 51.0547 303.713 51.0547C302.407 51.0547 301.901 50.5215 301.901 49.1543V44.8682H300.842V43.8906H301.901V42.1748ZM308.484 51.123C306.516 51.123 305.189 49.708 305.189 47.4453C305.189 45.1758 306.516 43.7676 308.484 43.7676C310.446 43.7676 311.772 45.1758 311.772 47.4453C311.772 49.708 310.446 51.123 308.484 51.123ZM308.484 50.0771C309.742 50.0771 310.562 49.1201 310.562 47.4453C310.562 45.7705 309.742 44.8135 308.484 44.8135C307.227 44.8135 306.399 45.7705 306.399 47.4453C306.399 49.1201 307.227 50.0771 308.484 50.0771ZM308.949 40.9512L310.809 42.8652H309.688L308.505 41.6484H308.464L307.281 42.8652H306.16L308.02 40.9512H308.949ZM309.715 40.8008L311.144 38.7773H312.265L310.686 40.8008H309.715ZM313.358 42.1748H314.548V43.8906H315.929V44.8682H314.548V49.0928C314.548 49.7422 314.821 50.0361 315.43 50.0361C315.566 50.0361 315.84 50.0156 315.922 50.002V51C315.778 51.0342 315.45 51.0547 315.17 51.0547C313.864 51.0547 313.358 50.5215 313.358 49.1543V44.8682H312.299V43.8906H313.358V42.1748Z" fill="#636366"/>
<defs>
<clipPath id="clip0_3412_2438">
<rect width="40" height="40" fill="white" transform="translate(12 12)"/>
</clipPath>
</defs>
</svg>
