<svg width="49" height="48" viewBox="0 0 49 48" fill="none" xmlns="http://www.w3.org/2000/svg">
<g clip-path="url(#clip0_3487_7635)">
<path d="M5.33646 36.517H44.1635C44.9668 36.517 45.6196 35.8639 45.6196 35.061V10.1006C45.6196 9.29772 44.9668 8.64459 44.1635 8.64459H5.33646C4.53357 8.64459 3.88044 9.29772 3.88044 10.1006V35.061C3.88044 35.8639 4.53399 36.517 5.33646 36.517ZM5.12846 10.1006C5.12846 10.0454 5.15038 9.99254 5.18938 9.95353C5.22839 9.91452 5.2813 9.89261 5.33646 9.89261H44.1635C44.2187 9.89261 44.2716 9.91452 44.3106 9.95353C44.3496 9.99254 44.3715 10.0454 44.3715 10.1006V35.061C44.3715 35.1161 44.3496 35.169 44.3106 35.208C44.2716 35.2471 44.2187 35.269 44.1635 35.269H5.33646C5.2813 35.269 5.22839 35.2471 5.18938 35.208C5.15038 35.169 5.12846 35.1161 5.12846 35.061V10.1006ZM48.75 37.631V38.7963C48.75 39.105 48.4996 39.3554 48.1909 39.3554H1.30911C1.16083 39.3554 1.01861 39.2965 0.91376 39.1916C0.808906 39.0868 0.75 38.9446 0.75 38.7963V37.631H20.4633C20.5606 37.9559 20.8585 38.1943 21.215 38.1943H28.2854C28.4547 38.1938 28.6192 38.1388 28.7546 38.0373C28.8901 37.9358 28.9892 37.7933 29.0371 37.631H48.75Z" fill="white"/>
</g>
<defs>
<clipPath id="clip0_3487_7635">
<rect width="48" height="48" fill="white" transform="translate(0.75)"/>
</clipPath>
</defs>
</svg>
