<svg width="25" height="24" viewBox="0 0 25 24" fill="none" xmlns="http://www.w3.org/2000/svg">
<path fill-rule="evenodd" clip-rule="evenodd" d="M15.8986 2C16.0986 3.1 15.5986 4.2 14.9986 5C14.3986 5.8 13.2986 6.5 12.1986 6.4C11.9986 5.3 12.4986 4.3 13.0986 3.5C13.7986 2.7 14.8986 2.1 15.8986 2ZM19.0986 19.4C19.5986 18.6 19.8986 18.1 20.2986 17.2C17.1986 16 16.6986 11.6 19.7986 10C18.8986 8.8 17.5986 8.2 16.2986 8.2C15.3986 8.2 14.7986 8.4 14.1986 8.6C13.6986 8.8 13.2986 8.9 12.7986 8.9C12.1986 8.9 11.7986 8.7 11.1986 8.5C10.5986 8.3 9.99858 8.1 9.29858 8.1C7.89858 8.1 6.39858 8.9 5.49858 10.4C4.19858 12.4 4.39858 16.3 6.49858 19.5C7.39858 20.7 8.39858 22 9.69858 22C10.2986 22 10.5986 21.8 10.9986 21.7C11.4986 21.5 11.9986 21.3 12.7986 21.3C13.6986 21.3 14.0986 21.5 14.5986 21.7C14.9986 21.9 15.2986 22 15.8986 22C17.2986 22 18.2986 20.5 19.0986 19.4Z" stroke="#1C1C1E" stroke-width="1.5" stroke-miterlimit="10" stroke-linecap="round" stroke-linejoin="round"/>
</svg>
