<svg width="29" height="31" viewBox="0 0 29 31" fill="none" xmlns="http://www.w3.org/2000/svg">
<path d="M7.5 14.67V13.7C7.5 11.45 9.31 9.24001 11.56 9.03001C14.24 8.77001 16.5 10.88 16.5 13.51V14.89" stroke="#E5E5EA" stroke-width="1.6" stroke-miterlimit="10" stroke-linecap="round" stroke-linejoin="round"/>
<path d="M8.99983 29H14.9998C19.0198 29 19.7398 27.39 19.9498 25.43L20.6998 19.43C20.9698 16.99 20.2698 15 15.9998 15H7.99983C3.72983 15 3.02983 16.99 3.29983 19.43L4.04983 25.43C4.25983 27.39 4.97983 29 8.99983 29Z" stroke="#E5E5EA" stroke-width="1.6" stroke-miterlimit="10" stroke-linecap="round" stroke-linejoin="round"/>
<path d="M15.4955 19H15.5045" stroke="#E5E5EA" stroke-width="1.6" stroke-linecap="round" stroke-linejoin="round"/>
<path d="M8.49451 19H8.50349" stroke="#E5E5EA" stroke-width="1.6" stroke-linecap="round" stroke-linejoin="round"/>
<rect x="11" width="18" height="18" rx="9" fill="#FF791B"/>
<path d="M19.9996 13.0994C19.4882 13.0994 19.0336 13.0118 18.6359 12.8366C18.2406 12.6615 17.9281 12.4176 17.6984 12.1051C17.4688 11.7926 17.3469 11.4316 17.3327 11.022H18.6679C18.6797 11.2185 18.7448 11.3902 18.8632 11.5369C18.9816 11.6813 19.139 11.7938 19.3355 11.8743C19.532 11.9548 19.7522 11.995 19.996 11.995C20.2564 11.995 20.4872 11.95 20.6885 11.8601C20.8897 11.7678 21.0471 11.6399 21.1608 11.4766C21.2744 11.3132 21.33 11.125 21.3277 10.9119C21.33 10.6918 21.2732 10.4976 21.1572 10.3295C21.0412 10.1615 20.8731 10.0301 20.653 9.93537C20.4352 9.84067 20.1724 9.79332 19.8646 9.79332H19.2219V8.7777H19.8646C20.1179 8.7777 20.3393 8.7339 20.5287 8.64631C20.7204 8.55871 20.8708 8.43561 20.9797 8.27699C21.0886 8.116 21.1418 7.93016 21.1395 7.71946C21.1418 7.51349 21.0957 7.33475 21.001 7.18324C20.9086 7.02936 20.7773 6.9098 20.6068 6.82457C20.4387 6.73935 20.241 6.69673 20.0138 6.69673C19.7912 6.69673 19.5853 6.73698 19.3959 6.81747C19.2065 6.89796 19.0538 7.01278 18.9378 7.16193C18.8218 7.30871 18.7602 7.4839 18.7531 7.6875H17.4854C17.4948 7.2803 17.612 6.92282 17.8369 6.61506C18.0642 6.30492 18.3672 6.06345 18.746 5.89062C19.1248 5.71544 19.5497 5.62784 20.0209 5.62784C20.5062 5.62784 20.9276 5.71899 21.2851 5.90128C21.6449 6.0812 21.9231 6.32386 22.1196 6.62926C22.3161 6.93466 22.4143 7.27202 22.4143 7.64134C22.4167 8.0509 22.296 8.39418 22.0521 8.67116C21.8106 8.94815 21.4934 9.12926 21.1004 9.21449V9.27131C21.6118 9.34233 22.0036 9.53172 22.2758 9.83949C22.5505 10.1449 22.6866 10.5249 22.6842 10.9794C22.6842 11.3866 22.5682 11.7512 22.3362 12.0732C22.1066 12.3928 21.7893 12.6437 21.3845 12.826C20.982 13.0083 20.5204 13.0994 19.9996 13.0994Z" fill="white"/>
</svg>
