<svg width="49" height="48" viewBox="0 0 49 48" fill="none" xmlns="http://www.w3.org/2000/svg">
<path d="M43.0555 6H6.44562C5.63772 6.00091 4.86317 6.32225 4.29191 6.89353C3.72064 7.46481 3.39932 8.23937 3.39844 9.04727L3.39844 33.666C3.39934 34.4739 3.72067 35.2484 4.29194 35.8197C4.8632 36.391 5.63773 36.7123 6.44562 36.7132H19.9226V38.6034H17.4829C17.1202 38.604 16.7725 38.7483 16.5161 39.0048C16.2597 39.2614 16.1154 39.6091 16.115 39.9718V41.4996C16.115 41.6323 16.1678 41.7596 16.2616 41.8534C16.3555 41.9473 16.4828 42 16.6155 42H32.8861C33.0189 42 33.1462 41.9473 33.24 41.8534C33.3339 41.7596 33.3866 41.6323 33.3866 41.4996V39.9718C33.3862 39.609 33.2419 39.2612 32.9853 39.0047C32.7288 38.7482 32.381 38.6039 32.0182 38.6034H29.5785V36.7132H43.0555C43.8634 36.7123 44.6379 36.391 45.2092 35.8197C45.7805 35.2484 46.1018 34.4739 46.1027 33.666V9.04727C46.1018 8.23937 45.7805 7.46481 45.2092 6.89353C44.638 6.32225 43.8634 6.00091 43.0555 6ZM6.44562 7.00088H43.0555C43.598 7.0015 44.1182 7.2173 44.5018 7.60094C44.8854 7.98458 45.1012 8.50473 45.1018 9.04727V31.77H4.39932V9.04727C4.39991 8.50473 4.61569 7.98458 4.99932 7.60094C5.38294 7.2173 5.90308 7.0015 6.44562 7.00088ZM32.3857 39.9716V40.9991H17.1155V39.9718C17.1156 39.8744 17.1544 39.781 17.2232 39.7121C17.2921 39.6432 17.3855 39.6045 17.4829 39.6043H32.0182C32.1156 39.6045 32.209 39.6432 32.2779 39.7121C32.3468 39.781 32.3856 39.8744 32.3857 39.9718V39.9716ZM28.5776 38.6032H20.9235V36.7132H28.5776V38.6032ZM43.0555 35.7121H6.44562C5.90314 35.7115 5.38305 35.4957 4.99944 35.1121C4.61582 34.7286 4.4 34.2085 4.39932 33.666V32.7709H45.1018V33.666C45.1012 34.2085 44.8854 34.7287 44.5018 35.1123C44.1182 35.4959 43.598 35.7117 43.0555 35.7123V35.7121Z" fill="#D1D1D6"/>
</svg>
