<svg width="104" height="104" viewBox="0 0 104 104" fill="none" xmlns="http://www.w3.org/2000/svg">
<g filter="url(#filter0_d_3455_5708)">
<rect x="24" y="22" width="56" height="56" rx="28" fill="white" shape-rendering="crispEdges"/>
<path d="M57.7191 39.7077C57.6537 39.6418 57.576 39.5896 57.4903 39.554C57.4047 39.5183 57.3129 39.5 57.2201 39.5C57.1273 39.5 57.0355 39.5184 56.9499 39.5541C56.8642 39.5898 56.7865 39.642 56.7212 39.7078L54.644 41.8011C54.5065 41.9395 54.3239 42.0159 54.1302 42.0159H49.8334C49.6395 42.0159 49.4571 41.9395 49.3183 41.8L47.2777 39.7536C47.2124 39.6881 47.1348 39.6361 47.0494 39.6006C46.9639 39.5651 46.8723 39.5469 46.7798 39.5469H46.7791C46.6864 39.547 46.5947 39.5654 46.5092 39.6011C46.4237 39.6368 46.3461 39.689 46.2808 39.7547L40.2041 45.8763C39.9315 46.151 39.932 46.5942 40.2054 46.8683L41.9482 48.6144C42.2783 48.9471 42.4601 49.3897 42.4601 49.8608C42.4601 50.4704 42.6312 51.0534 42.949 51.5556C42.2573 52.3969 42.3019 53.6496 43.0838 54.4372C43.4623 54.8186 43.9579 55.0391 44.4895 55.0651C44.5139 55.5792 44.7204 56.086 45.1093 56.4777C45.4878 56.8591 45.9835 57.0796 46.5152 57.1056C46.5394 57.6198 46.7461 58.1266 47.1348 58.5183C47.747 59.135 48.6253 59.2904 49.3671 59.024C49.472 59.3276 49.6441 59.6035 49.8706 59.8313C50.7054 60.6725 52.0591 60.6727 52.894 59.8313L53.1909 59.5325C53.3713 59.3508 53.5175 59.1381 53.6226 58.9046C54.453 59.6383 55.7329 59.622 56.542 58.8068C56.931 58.4151 57.1375 57.9083 57.1617 57.3942C57.6933 57.3684 58.1891 57.1477 58.5676 56.7663C58.9565 56.3746 59.163 55.8678 59.1874 55.3536C59.7188 55.3279 60.2146 55.1072 60.5931 54.726C61.3705 53.9428 61.4195 52.6993 60.7398 51.8582C61.2351 51.1603 61.5033 50.3274 61.5033 49.4527C61.5033 49.2478 61.5855 49.0475 61.7289 48.903L63.7958 46.82C64.0679 46.5459 64.0679 46.1035 63.7958 45.8294L57.7191 39.7077ZM44.0819 52.3967L45.0947 51.3764C45.1618 51.3083 45.2418 51.2542 45.33 51.2173C45.4181 51.1804 45.5128 51.1614 45.6084 51.1614C45.704 51.1614 45.7986 51.1804 45.8868 51.2173C45.975 51.2542 46.055 51.3083 46.1221 51.3764C46.4095 51.6659 46.4095 52.1368 46.1221 52.4262L45.1093 53.4466C45.0422 53.5147 44.9622 53.5687 44.874 53.6056C44.7859 53.6425 44.6912 53.6615 44.5956 53.6615C44.5 53.6615 44.4054 53.6425 44.3172 53.6056C44.229 53.5687 44.149 53.5147 44.0819 53.4466C43.7946 53.1571 43.7946 52.6862 44.0819 52.3966V52.3967ZM46.1074 54.4372L48.1329 52.3967C48.2 52.3286 48.28 52.2745 48.3682 52.2376C48.4564 52.2007 48.5511 52.1816 48.6467 52.1816C48.7423 52.1816 48.837 52.2007 48.9252 52.2376C49.0134 52.2745 49.0934 52.3286 49.1605 52.3967C49.4478 52.6862 49.4478 53.1571 49.1605 53.4466C48.4385 54.1739 48.4001 54.2125 47.1348 55.4871C47.0677 55.5552 46.9877 55.6092 46.8995 55.6461C46.8113 55.683 46.7167 55.702 46.6211 55.702C46.5255 55.7019 46.4309 55.6829 46.3427 55.646C46.2545 55.6091 46.1745 55.555 46.1074 55.487C45.8201 55.1976 45.8201 54.7266 46.1074 54.4372ZM48.1329 57.5275C47.8457 57.2382 47.8457 56.7672 48.1329 56.4777L49.1457 55.4575C49.2128 55.3894 49.2928 55.3353 49.381 55.2984C49.4692 55.2615 49.5639 55.2425 49.6595 55.2425C49.7551 55.2425 49.8497 55.2615 49.938 55.2984C50.0262 55.3353 50.1061 55.3894 50.1733 55.4575C50.4386 55.7248 50.4584 56.1465 50.2335 56.4376C50.1716 56.4948 50.2637 56.4028 49.1605 57.5275C49.0934 57.5956 49.0135 57.6497 48.9253 57.6866C48.8371 57.7236 48.7424 57.7426 48.6467 57.7426C48.5511 57.7426 48.4564 57.7236 48.3682 57.6866C48.28 57.6497 48.2 57.5956 48.1329 57.5275ZM52.1929 58.5417L51.8961 58.8405C51.829 58.9086 51.7491 58.9627 51.6609 58.9996C51.5727 59.0366 51.478 59.0556 51.3824 59.0556C51.2868 59.0556 51.1922 59.0366 51.104 58.9996C51.0158 58.9627 50.9358 58.9086 50.8687 58.8405C50.6069 58.5769 50.5844 58.1629 50.7997 57.8724C51.1857 57.4822 51.1668 57.5053 51.234 57.4317C51.5211 57.206 51.9311 57.2283 52.1929 57.4919C52.4803 57.7814 52.48 58.2524 52.1929 58.5417ZM59.5952 53.7351C59.528 53.8032 59.448 53.8573 59.3598 53.8942C59.2716 53.9311 59.177 53.9501 59.0814 53.9501C58.9858 53.9501 58.8911 53.9311 58.8029 53.8942C58.7147 53.8573 58.6347 53.8032 58.5676 53.7351L57.2582 52.4161C56.9846 52.1405 56.5393 52.1389 56.2638 52.4124C55.9882 52.686 55.9865 53.1311 56.2601 53.4066L57.5696 54.7257C57.857 55.0152 57.857 55.4862 57.5696 55.7755C57.5025 55.8436 57.4225 55.8977 57.3343 55.9346C57.2461 55.9716 57.1515 55.9906 57.0558 55.9906C56.9602 55.9906 56.8656 55.9716 56.7773 55.9346C56.6891 55.8977 56.6092 55.8436 56.542 55.7755L55.2327 54.4565C54.9589 54.1808 54.5138 54.1792 54.2382 54.4527C53.9627 54.7263 53.961 55.1716 54.2346 55.4472L55.5439 56.7663C55.8314 57.0558 55.8314 57.5267 55.5439 57.816C55.4768 57.8841 55.3968 57.9382 55.3086 57.9751C55.2204 58.0121 55.1258 58.0311 55.0302 58.0311C54.9345 58.0311 54.8399 58.0121 54.7517 57.9751C54.6635 57.9382 54.5835 57.8841 54.5164 57.816C53.1379 56.4387 53.2041 56.4689 53.0653 56.3851C52.7071 56.0767 52.2634 55.898 51.7907 55.8739C51.7652 55.3617 51.5586 54.857 51.1714 54.4667C50.9727 54.2667 50.7416 54.1111 50.4902 54.0045C50.9671 53.1837 50.8566 52.1092 50.1585 51.4061C49.4429 50.6852 48.3724 50.5978 47.5743 51.0653C47.4682 50.8116 47.314 50.5808 47.1202 50.3858C46.2852 49.5446 44.9317 49.5446 44.0966 50.3858L43.9845 50.4987C43.9062 50.2952 43.8662 50.0789 43.8664 49.8608C43.8664 49.016 43.5396 48.2217 42.9448 47.6224L41.6951 46.3703L46.7809 41.2468L48.3215 42.7917C48.6658 43.1384 49.1072 43.3518 49.5842 43.4071L46.4422 47.1774C46.1937 47.4758 46.234 47.9191 46.5322 48.1676C47.2535 48.7687 48.1657 49.0531 49.1008 48.9681C50.0358 48.8832 50.8819 48.4392 51.4838 47.7168C51.7355 47.4147 52.1591 47.3237 52.5141 47.4951C53.2387 47.8452 54.035 47.973 54.8183 47.873L59.5952 52.6852C59.8825 52.9747 59.8825 53.4456 59.5952 53.7351ZM60.7309 47.9122C60.3221 48.324 60.097 48.8712 60.097 49.4527C60.097 49.9434 59.9698 50.414 59.7321 50.8271L56.3123 47.3821C57.0114 46.9932 57.5847 46.4085 57.965 45.6838C58.1454 45.34 58.0128 44.915 57.6689 44.7346C57.325 44.5541 56.9 44.6866 56.7197 45.0305C56.3381 45.7578 55.6831 46.2432 54.9494 46.423C54.9172 46.428 54.8852 46.4349 54.8538 46.4444C54.29 46.5611 53.6856 46.4994 53.1259 46.229C52.6715 46.0086 52.1564 45.9468 51.6628 46.0535C51.1692 46.1602 50.7255 46.4292 50.4027 46.8176C50.042 47.2503 49.5344 47.5167 48.9736 47.5678C48.6548 47.5967 48.3406 47.5541 48.0491 47.4459L51.3041 43.5393C51.5592 43.4615 51.8236 43.4161 52.0902 43.4161H54.1302C54.7015 43.4161 55.2384 43.1982 55.6421 42.7917L57.2203 41.2012L62.3062 46.3247L60.7309 47.9122Z" fill="#1C1C1E"/>
</g>
<defs>
<filter id="filter0_d_3455_5708" x="0" y="0" width="104" height="104" filterUnits="userSpaceOnUse" color-interpolation-filters="sRGB">
<feFlood flood-opacity="0" result="BackgroundImageFix"/>
<feColorMatrix in="SourceAlpha" type="matrix" values="0 0 0 0 0 0 0 0 0 0 0 0 0 0 0 0 0 0 127 0" result="hardAlpha"/>
<feOffset dy="2"/>
<feGaussianBlur stdDeviation="12"/>
<feComposite in2="hardAlpha" operator="out"/>
<feColorMatrix type="matrix" values="0 0 0 0 0 0 0 0 0 0 0 0 0 0 0 0 0 0 0.04 0"/>
<feBlend mode="normal" in2="BackgroundImageFix" result="effect1_dropShadow_3455_5708"/>
<feBlend mode="normal" in="SourceGraphic" in2="effect1_dropShadow_3455_5708" result="shape"/>
</filter>
</defs>
</svg>
