<svg width="104" height="104" viewBox="0 0 104 104" fill="none" xmlns="http://www.w3.org/2000/svg">
<g filter="url(#filter0_d_3455_8229)">
<rect x="24" y="22" width="56" height="56" rx="28" fill="white" shape-rendering="crispEdges"/>
<g clip-path="url(#clip0_3455_8229)">
<path d="M48.2715 59.0842C48.5571 60.7378 50.0011 62 51.7351 62C53.4691 62 54.9129 60.7378 55.1985 59.0842C56.044 58.8092 56.6572 58.014 56.6572 57.078V53.9545C56.6572 52.7185 57.0972 51.4776 57.9296 50.3662C58.9372 49.0209 59.4697 47.4189 59.4697 45.7338C59.4697 40.8608 55.0101 37.1439 50.0784 38.1717C47.0694 38.7989 44.6789 41.2603 44.1304 44.2968C43.7413 46.4499 44.2298 48.5889 45.506 50.3197C46.361 51.4793 46.8131 52.7378 46.8131 53.9595V57.0779C46.8131 58.014 47.4261 58.8092 48.2715 59.0842V59.0842ZM51.7351 60.5937C50.8185 60.5937 50.0368 60.0052 49.7466 59.1869H53.7237C53.4334 60.0052 52.6517 60.5937 51.7351 60.5937H51.7351ZM55.2509 57.0779C55.2509 57.4656 54.9355 57.781 54.5476 57.781H48.9224C48.5348 57.781 48.2193 57.4656 48.2193 57.0779V56.281H55.2509V57.0779ZM46.6378 49.4851C45.5938 48.0691 45.1948 46.3154 45.5143 44.5469C45.962 42.0686 47.9115 40.0599 50.3653 39.5485C54.4288 38.7017 58.0634 41.7584 58.0634 45.7338C58.0634 47.1126 57.6278 48.423 56.8038 49.5232C55.7878 50.8798 55.2508 52.4122 55.2508 53.9545V54.8748H48.2193V53.9595C48.2193 52.4353 47.6724 50.888 46.6378 49.4851Z" fill="black"/>
<path d="M48.6074 46.3628L50.7911 47.4547L49.6993 49.6382C49.545 49.9467 49.6371 50.3216 49.9169 50.5232C50.1989 50.7264 50.5836 50.6918 50.8254 50.4499L55.0443 46.231C55.123 46.1522 55.182 46.0559 55.2162 45.9498C55.2504 45.8438 55.2589 45.7312 55.2411 45.6212C55.2233 45.5112 55.1795 45.4071 55.1136 45.3173C55.0476 45.2276 54.9612 45.1548 54.8615 45.1049L52.6778 44.013L53.7697 41.8293C53.8443 41.68 53.8634 41.5089 53.8234 41.3468C53.7835 41.1847 53.6872 41.0421 53.5518 40.9445C53.4164 40.8469 53.2506 40.8006 53.0842 40.814C52.9178 40.8275 52.7616 40.8997 52.6436 41.0178L48.4246 45.2366C48.3459 45.3154 48.287 45.4118 48.2527 45.5178C48.2185 45.6238 48.21 45.7365 48.2278 45.8464C48.2457 45.9564 48.2894 46.0606 48.3554 46.1504C48.4213 46.2401 48.5077 46.313 48.6073 46.3628L48.6074 46.3628ZM51.0761 44.574C51.138 44.7405 51.2611 44.8772 51.4201 44.9563L53.3601 45.9265L52.393 46.8934C52.3308 46.727 52.2079 46.5904 52.0489 46.5111L50.1089 45.5412L51.0761 44.574ZM52.4376 52.7652C52.4376 53.1536 52.1229 53.4684 51.7345 53.4684C51.3462 53.4684 51.0314 53.1536 51.0314 52.7652C51.0314 52.3769 51.3461 52.0621 51.7345 52.0621C52.1229 52.0621 52.4376 52.3769 52.4376 52.7652Z" fill="black"/>
</g>
</g>
<defs>
<filter id="filter0_d_3455_8229" x="0" y="0" width="104" height="104" filterUnits="userSpaceOnUse" color-interpolation-filters="sRGB">
<feFlood flood-opacity="0" result="BackgroundImageFix"/>
<feColorMatrix in="SourceAlpha" type="matrix" values="0 0 0 0 0 0 0 0 0 0 0 0 0 0 0 0 0 0 127 0" result="hardAlpha"/>
<feOffset dy="2"/>
<feGaussianBlur stdDeviation="12"/>
<feComposite in2="hardAlpha" operator="out"/>
<feColorMatrix type="matrix" values="0 0 0 0 0 0 0 0 0 0 0 0 0 0 0 0 0 0 0.04 0"/>
<feBlend mode="normal" in2="BackgroundImageFix" result="effect1_dropShadow_3455_8229"/>
<feBlend mode="normal" in="SourceGraphic" in2="effect1_dropShadow_3455_8229" result="shape"/>
</filter>
<clipPath id="clip0_3455_8229">
<rect width="24" height="24" fill="white" transform="translate(40 38)"/>
</clipPath>
</defs>
</svg>
