<svg width="104" height="104" viewBox="0 0 104 104" fill="none" xmlns="http://www.w3.org/2000/svg">
<g filter="url(#filter0_d_3455_5700)">
<rect x="24" y="22" width="56" height="56" rx="28" fill="white" shape-rendering="crispEdges"/>
<path fill-rule="evenodd" clip-rule="evenodd" d="M61.582 48.7051C61.5821 48.9993 61.5262 49.2909 61.4173 49.5642C62.4064 49.8338 63.1359 50.7395 63.1359 51.8129C63.1359 52.7188 62.6161 53.5051 61.8594 53.8907C62.0179 54.2109 62.1003 54.5634 62.1 54.9207C62.1 55.8266 61.5802 56.6129 60.8234 56.9985C60.982 57.3187 61.0644 57.6712 61.0641 58.0285C61.0641 59.3138 60.0184 60.3594 58.7332 60.3594H52.5176C51.1698 60.3594 49.8309 60.0323 48.6328 59.423V59.5824C48.6328 60.0115 48.2849 60.3594 47.8559 60.3594H41.6402C41.2111 60.3594 40.8633 60.0115 40.8633 59.5824V45.5973C40.8633 45.1682 41.2111 44.8203 41.6402 44.8203H47.8558C48.2849 44.8203 48.6328 45.1682 48.6328 45.5973V46.2524C49.6083 45.9404 50.3453 45.0593 50.4273 43.993L50.707 40.358C50.7381 39.9532 51.0757 39.6406 51.4816 39.6406H51.7514C52.83 39.6406 53.8689 40.0945 54.6017 40.8859C55.3346 41.6772 55.7074 42.7479 55.6247 43.8233L55.45 46.0954C55.4472 46.131 55.4519 46.1667 55.4636 46.2004C55.4753 46.2341 55.4939 46.265 55.5181 46.2912C55.5424 46.3174 55.5718 46.3383 55.6045 46.3526C55.6372 46.3669 55.6725 46.3742 55.7082 46.3742H59.2512C60.5364 46.3742 61.582 47.4198 61.582 48.7051ZM42.4172 58.8055H47.0789V46.3742H42.4172V58.8055ZM57.1793 52.5898H60.8051C61.2335 52.5898 61.582 52.2413 61.582 51.8129C61.582 51.3845 61.2335 51.0359 60.8051 51.0359H57.1793C56.7502 51.0359 56.4023 50.6881 56.4023 50.259C56.4023 49.8299 56.7502 49.482 57.1793 49.482H59.2512C59.6796 49.482 60.0281 49.1335 60.0281 48.7051C60.0281 48.2767 59.6796 47.9281 59.2512 47.9281H55.7081C54.6521 47.9281 53.8196 47.0291 53.9006 45.9762L54.0753 43.7041C54.1257 43.0494 53.9077 42.4235 53.4615 41.9416C53.1186 41.5714 52.6805 41.3289 52.1979 41.2365L51.9767 44.1121C51.8966 45.1535 51.4304 46.1179 50.664 46.8276C50.0906 47.3586 49.3879 47.711 48.6328 47.8548V57.6252C49.7765 58.3879 51.1412 58.8055 52.5176 58.8055H58.7332C59.1616 58.8055 59.5102 58.4569 59.5102 58.0285C59.5102 57.6001 59.1616 57.2516 58.7332 57.2516H57.1793C56.7502 57.2516 56.4023 56.9037 56.4023 56.4746C56.4023 56.0455 56.7502 55.6977 57.1793 55.6977H59.7691C60.1976 55.6977 60.5461 55.3491 60.5461 54.9207C60.5461 54.4923 60.1976 54.1438 59.7691 54.1438H57.1793C56.7502 54.1438 56.4023 53.7959 56.4023 53.3668C56.4023 52.9377 56.7502 52.5898 57.1793 52.5898Z" fill="#1C1C1E"/>
<path d="M44.7496 49.223C45.1787 49.223 45.5266 48.8752 45.5266 48.4461C45.5266 48.017 45.1787 47.6691 44.7496 47.6691C44.3205 47.6691 43.9727 48.017 43.9727 48.4461C43.9727 48.8752 44.3205 49.223 44.7496 49.223Z" fill="#1C1C1E"/>
</g>
<defs>
<filter id="filter0_d_3455_5700" x="0" y="0" width="104" height="104" filterUnits="userSpaceOnUse" color-interpolation-filters="sRGB">
<feFlood flood-opacity="0" result="BackgroundImageFix"/>
<feColorMatrix in="SourceAlpha" type="matrix" values="0 0 0 0 0 0 0 0 0 0 0 0 0 0 0 0 0 0 127 0" result="hardAlpha"/>
<feOffset dy="2"/>
<feGaussianBlur stdDeviation="12"/>
<feComposite in2="hardAlpha" operator="out"/>
<feColorMatrix type="matrix" values="0 0 0 0 0 0 0 0 0 0 0 0 0 0 0 0 0 0 0.04 0"/>
<feBlend mode="normal" in2="BackgroundImageFix" result="effect1_dropShadow_3455_5700"/>
<feBlend mode="normal" in="SourceGraphic" in2="effect1_dropShadow_3455_5700" result="shape"/>
</filter>
</defs>
</svg>
