<svg width="42" height="36" viewBox="0 0 42 36" fill="none" xmlns="http://www.w3.org/2000/svg">
<path d="M10.4427 8.16141C13.4618 4.97198 17.9189 3.19841 22.6363 3.76259C24.1841 3.94768 25.6425 4.37352 26.9827 4.99234L30.8784 2.97406C28.6092 1.4828 25.9666 0.475738 23.0789 0.130497C17.1029 -0.584082 11.4604 1.68575 7.66334 5.75303L10.4427 8.16141Z" fill="black"/>
<path d="M14.1545 13.1159L6.80074 6.74489C6.05643 7.66948 5.39997 8.6701 4.84876 9.73802L13.64 17.3541L41.4184 2.97424C40.6179 2.02368 39.7212 1.15206 38.7351 0.380981L14.1545 13.1159Z" fill="black"/>
<path d="M9.56291 26.5695C7.339 23.7183 6.19947 20.0344 6.66975 16.1743C6.78024 15.2679 6.97753 14.3936 7.24695 13.5546L4.27307 10.9782C3.64618 12.4645 3.2084 14.0575 3.00397 15.736C2.44102 20.357 3.71243 24.7779 6.24895 28.2851L9.56291 26.5695Z" fill="black"/>
<path d="M31.3908 27.5942C28.3718 30.7838 23.9148 32.5572 19.1971 31.9932C17.6494 31.8081 16.1909 31.3823 14.8506 30.7633L10.955 32.7815C13.2242 34.273 15.867 35.2799 18.7547 35.6253C24.7308 36.3399 30.3735 34.0701 34.1705 30.0026L31.3908 27.5942Z" fill="black"/>
<path d="M35.5851 7.47051L32.271 9.18613C34.4949 12.0374 35.6344 15.7212 35.1641 19.5814C35.0536 20.4875 34.8563 21.362 34.5869 22.201L37.561 24.7775C38.1879 23.2912 38.6257 21.6981 38.8301 20.0199C39.393 15.3984 38.1216 10.9778 35.5851 7.47051Z" fill="black"/>
<path d="M27.6797 22.6399L35.0335 29.0109C35.7778 28.0863 36.4343 27.0857 36.9857 26.0178L28.1945 18.4017L0.416016 32.7816C1.21651 33.7321 2.11325 34.6037 3.0993 35.3748L27.6797 22.6399Z" fill="black"/>
</svg>
