<svg width="40" height="40" viewBox="0 0 40 40" fill="none" xmlns="http://www.w3.org/2000/svg">
<rect width="40" height="40" rx="20" fill="#0066CC"/>
<path d="M26.136 9.09091C23.5042 9.09091 21.3633 11.2318 21.3633 13.8636C21.3633 16.3127 25.1924 20.6505 25.6287 21.1373C25.7583 21.2805 25.9424 21.3636 26.136 21.3636C26.3296 21.3636 26.5137 21.2805 26.6433 21.1373C27.0796 20.6505 30.9087 16.3127 30.9087 13.8636C30.9087 11.2318 28.7678 9.09091 26.136 9.09091ZM26.136 15.9091C25.0069 15.9091 24.0906 14.9927 24.0906 13.8636C24.0906 12.7346 25.0069 11.8182 26.136 11.8182C27.2651 11.8182 28.1815 12.7346 28.1815 13.8636C28.1815 14.9927 27.2651 15.9091 26.136 15.9091Z" fill="white"/>
<path d="M9.519 17.1009C9.26127 17.2046 9.09082 17.4555 9.09082 17.735V30.2273C9.09082 30.4537 9.204 30.665 9.39082 30.7918C9.50537 30.8682 9.63764 30.9091 9.77264 30.9091C9.85855 30.9091 9.94446 30.8927 10.0263 30.86L15.909 28.5064V14.5455L9.519 17.1009Z" fill="white"/>
<path d="M27.6581 22.0483C27.2708 22.4792 26.7158 22.7274 26.1363 22.7274C25.5567 22.7274 25.0017 22.4792 24.6145 22.0483C24.4754 21.8942 24.2967 21.691 24.0908 21.4497V30.9092L30.4808 28.3538C30.7399 28.2515 30.909 27.9992 30.909 27.721V17.6969C29.7922 19.5883 28.299 21.3337 27.6581 22.0483Z" fill="white"/>
<path d="M20.4293 15.8082L17.2725 14.5455V28.5064L22.727 30.6882V19.7382C21.8556 18.5641 20.9461 17.15 20.4293 15.8082Z" fill="white"/>
</svg>
