<svg width="40" height="40" viewBox="0 0 40 40" fill="none" xmlns="http://www.w3.org/2000/svg">
<g clip-path="url(#clip0_3412_3551)">
<path fill-rule="evenodd" clip-rule="evenodd" d="M18.2256 0.132812H21.7592C26.6122 0.132812 29.4482 0.845608 31.9658 2.19537C34.4833 3.54512 36.47 5.51668 37.8046 8.03424C39.1543 10.5518 39.8671 13.3878 39.8671 18.2408V21.7593C39.8671 26.6123 39.1543 29.4483 37.8046 31.9658C36.4548 34.4834 34.4833 36.4702 31.9658 37.8047C29.4482 39.1545 26.6122 39.8673 21.7592 39.8673H18.2407C13.3877 39.8673 10.5517 39.1545 8.03416 37.8047C5.51666 36.455 3.52994 34.4834 2.19536 31.9658C0.8456 29.4483 0.132812 26.6123 0.132812 21.7593V18.2408C0.132812 13.3878 0.8456 10.5518 2.19536 8.03424C3.54511 5.51668 5.51666 3.52996 8.03416 2.19537C10.5366 0.845608 13.3877 0.132812 18.2256 0.132812Z" fill="#0068FF"/>
<path opacity="0.12" fill-rule="evenodd" clip-rule="evenodd" d="M39.8669 21.1789V21.7595C39.8669 26.6126 39.1542 29.4486 37.8044 31.9661C36.4546 34.4836 34.483 36.4703 31.9655 37.805C29.448 39.1547 26.612 39.8675 21.759 39.8675H18.2406C14.2695 39.8675 11.649 39.3902 9.44832 38.4773L5.82031 34.7414L39.8669 21.1789Z" fill="#001A33"/>
<path fill-rule="evenodd" clip-rule="evenodd" d="M6.2232 34.8714C8.08152 35.0768 10.4049 34.5469 12.0546 33.746C19.218 37.7054 30.4158 37.5163 37.1938 33.1786C37.4567 32.7842 37.7023 32.3742 37.9302 31.949C39.285 29.4223 40.0003 26.576 40.0003 21.7053V18.174C40.0003 13.3032 39.285 10.4569 37.9302 7.93018C36.5908 5.40349 34.5969 3.42474 32.0702 2.07006C29.5434 0.715391 26.6971 0 21.8264 0H18.2799C14.1315 0 11.4386 0.522203 9.17592 1.51914C9.05224 1.6299 8.93088 1.74254 8.81208 1.85708C2.17387 8.25624 1.66926 22.1274 7.29823 29.6626C7.30451 29.6737 7.31146 29.6849 7.31911 29.6962C8.18672 30.9748 7.34955 33.2123 6.04054 34.5213C5.82745 34.7192 5.90355 34.841 6.2232 34.8714Z" fill="white"/>
<path d="M16.4503 13.6H8.67033V15.2682H14.0693L8.74609 21.8654C8.57929 22.108 8.45801 22.3355 8.45801 22.8511V23.2758H15.7982C16.1622 23.2758 16.4655 22.9725 16.4655 22.6085V21.7137H10.7935L15.7982 15.435C15.874 15.3441 16.0105 15.1773 16.0712 15.1014L16.1015 15.0559C16.3897 14.6313 16.4503 14.2673 16.4503 13.8275V13.6Z" fill="#0068FF"/>
<path d="M26.3531 23.2758H27.4602V13.6H25.792V22.7146C25.792 23.018 26.0346 23.2758 26.3531 23.2758Z" fill="#0068FF"/>
<path d="M20.6508 15.7539C18.5579 15.7539 16.8594 17.4525 16.8594 19.5454C16.8594 21.6382 18.5579 23.3368 20.6508 23.3368C22.7437 23.3368 24.4423 21.6382 24.4423 19.5454C24.4575 17.4525 22.7589 15.7539 20.6508 15.7539ZM20.6508 21.7747C19.4224 21.7747 18.4215 20.7738 18.4215 19.5454C18.4215 18.317 19.4224 17.316 20.6508 17.316C21.8792 17.316 22.8802 18.317 22.8802 19.5454C22.8802 20.7738 21.8944 21.7747 20.6508 21.7747Z" fill="#0068FF"/>
<path d="M32.3891 15.693C30.2811 15.693 28.5674 17.4067 28.5674 19.5147C28.5674 21.6228 30.2811 23.3366 32.3891 23.3366C34.4971 23.3366 36.2109 21.6228 36.2109 19.5147C36.2109 17.4067 34.4971 15.693 32.3891 15.693ZM32.3891 21.7745C31.1455 21.7745 30.1446 20.7735 30.1446 19.5299C30.1446 18.2863 31.1455 17.2854 32.3891 17.2854C33.6327 17.2854 34.6337 18.2863 34.6337 19.5299C34.6337 20.7735 33.6327 21.7745 32.3891 21.7745Z" fill="#0068FF"/>
<path d="M23.5647 23.2755H24.4595V15.9656H22.8975V22.6234C22.8975 22.9722 23.2007 23.2755 23.5647 23.2755Z" fill="#0068FF"/>
</g>
<defs>
<clipPath id="clip0_3412_3551">
<rect width="40" height="40" fill="white"/>
</clipPath>
</defs>
</svg>
