<svg width="49" height="48" viewBox="0 0 49 48" fill="none" xmlns="http://www.w3.org/2000/svg">
<path d="M42.476 4H6.02645C5.3618 4.00077 4.72459 4.26515 4.25461 4.73514C3.78464 5.20513 3.52028 5.84235 3.51953 6.507L3.51953 33.7695C3.52028 34.4342 3.78464 35.0714 4.25462 35.5413C4.72459 36.0113 5.3618 36.2757 6.02645 36.2764H18.9057V37.9204C18.9045 38.9874 18.4802 40.0103 17.7258 40.7648C16.9713 41.5192 15.9484 41.9437 14.8815 41.9449C14.8113 41.945 14.7413 41.9522 14.6726 41.9666H12.7363C12.4668 41.9666 12.2083 42.0737 12.0177 42.2643C11.8271 42.4549 11.72 42.7134 11.72 42.983C11.72 43.2525 11.8271 43.511 12.0177 43.7016C12.2083 43.8922 12.4668 43.9993 12.7363 43.9993H33.5859C33.5978 43.9993 33.6093 44.0002 33.6212 44.0002C33.6272 44.0002 33.6329 43.9994 33.6388 43.9993H35.7663C36.0359 43.9993 36.2944 43.8922 36.485 43.7016C36.6756 43.511 36.7827 43.2525 36.7827 42.983C36.7827 42.7134 36.6756 42.4549 36.485 42.2643C36.2944 42.0737 36.0359 41.9666 35.7663 41.9666H33.5859C32.5252 41.9563 31.5114 41.5279 30.7645 40.7747C30.0177 40.0214 29.5981 39.0039 29.5968 37.9432V36.2764H42.476C43.1407 36.2757 43.7779 36.0113 44.2479 35.5413C44.7178 35.0714 44.9822 34.4342 44.983 33.7695V6.507C44.9822 5.84235 44.7178 5.20513 44.2479 4.73514C43.7779 4.26515 43.1407 4.00077 42.476 4ZM6.02645 6.03252H42.476C42.6018 6.03267 42.7224 6.08271 42.8113 6.17166C42.9003 6.26061 42.9503 6.38121 42.9504 6.507V29.0407H5.55221V6.507C5.55234 6.38124 5.60234 6.26067 5.69124 6.17172C5.78014 6.08277 5.90069 6.03271 6.02645 6.03252ZM29.0986 41.9666H19.3841C20.3856 40.8571 20.9394 39.4152 20.9384 37.9206V36.2766H27.5644V37.9433C27.5635 39.4276 28.1099 40.86 29.099 41.9666H29.0986ZM42.4756 34.2439H6.02645C5.90066 34.2438 5.78006 34.1938 5.69112 34.1049C5.60217 34.0159 5.55216 33.8953 5.55205 33.7695V31.0728H42.9503V33.7695C42.9502 33.8953 42.9002 34.0159 42.8113 34.1048C42.7224 34.1937 42.6018 34.2438 42.476 34.2439H42.4756Z" fill="#D1D1D6"/>
</svg>
