<svg width="28" height="28" viewBox="0 0 28 28" fill="none" xmlns="http://www.w3.org/2000/svg">
<g clip-path="url(#clip0_3269_25129)">
<path d="M28.0007 14C28.0007 21.7317 21.7324 28 14 28H13.9738C6.25381 27.9855 0 21.7214 0 14C0 6.27865 6.25381 0.0138076 13.9738 8.34465e-06H14C21.7324 8.34465e-06 28.0007 6.26624 28.0007 14Z" fill="#3A3A3D"/>
<path d="M13.9738 8.34465e-06V28C6.25381 27.9855 0 21.7214 0 14C0 6.27865 6.25381 0.0138076 13.9738 8.34465e-06Z" fill="#3A3A3D"/>
<path d="M21.6178 10.1245L21.6005 12.9927C21.0416 12.9858 20.4856 12.9112 19.9446 12.7705C19.1101 12.5525 18.323 12.1822 17.6229 11.6783C17.6229 11.9715 17.6271 12.4089 17.6271 12.9409C17.6271 13.6488 17.6271 14.0511 17.6229 14.4781C17.6105 17.1166 17.676 17.6271 17.4442 18.6703C17.396 18.9219 17.33 19.1698 17.2469 19.4121C16.8012 20.654 15.8297 21.6489 14.8396 22.1781C14.5633 22.325 14.2733 22.4445 13.9737 22.5348C12.1025 23.102 9.85395 22.6038 8.69344 21.2239L8.68585 21.2156L8.67688 21.2039C7.69092 20.0144 7.47565 18.1598 7.45495 17.6851C7.45495 17.6244 7.45082 17.565 7.45082 17.565C7.43563 16.9166 7.52891 16.2702 7.7268 15.6525C7.92689 15.0136 8.5858 13.6799 10.0658 12.8698C10.9888 12.3726 12.0423 12.171 13.0837 12.2923L13.0498 15.195C12.9912 15.1798 11.5733 14.8438 10.6426 15.8098C9.79944 16.6846 9.85395 18.0942 10.4521 18.8925C10.4839 18.9353 10.5177 18.9767 10.5529 19.0153C10.8875 19.3886 11.3118 19.5287 11.5982 19.6266C11.9778 19.7517 12.3763 19.8101 12.7759 19.7991C13.204 19.7924 13.6204 19.6587 13.9723 19.4148C14.9452 18.7538 15.0763 17.5768 15.0811 17.5098C15.0691 13.7206 15.0579 9.9313 15.0473 6.14203V6.13858L16.8709 6.10616H16.9005L17.1648 6.10133C17.3596 6.80257 17.6899 7.45888 18.1369 8.03322C18.2778 8.21286 18.4299 8.38339 18.5923 8.54379C19.206 9.14108 19.9432 9.59656 20.7519 9.87817H20.7574C21.038 9.9807 21.3255 10.063 21.6178 10.1245Z" fill="#FD2854"/>
<path d="M20.7916 11.4223H20.7861C19.804 11.5796 18.7987 11.5033 17.8516 11.1994C17.1904 10.9844 16.5696 10.6605 16.015 10.2411C16.3475 12.2513 16.3475 14.3025 16.015 16.3127C15.621 18.6752 15.374 20.1558 14.0555 21.1031C14.0279 21.1232 13.9996 21.1432 13.9713 21.1618C12.1505 22.3948 9.60661 21.7828 8.67448 21.2025L8.66068 21.1942L8.63446 21.1777C8.32721 20.9741 8.03901 20.7432 7.77339 20.4877C7.29723 20.0258 6.91727 19.4742 6.65544 18.8647C6.39361 18.2552 6.25509 17.5998 6.24788 16.9365C6.23016 16.2494 6.34422 15.5653 6.58389 14.9211C6.73913 14.5071 7.31594 13.0347 8.92286 12.1385C9.95183 11.5743 11.1408 11.373 12.2982 11.5672C12.2936 11.7972 12.2892 12.0272 12.285 12.2572V12.262L12.2581 13.7178C11.7545 13.5991 11.2339 13.5702 10.7202 13.6322C10.3062 13.6833 9.90054 13.7309 9.46931 14.0021C8.91703 14.3576 8.52615 14.9154 8.38055 15.5559C8.28842 15.8661 8.26952 16.1934 8.32536 16.5121C8.34191 16.6032 8.46335 17.2359 8.97392 17.6899C9.14572 17.8424 9.21885 17.8486 9.46931 18.0825C9.6901 18.2895 9.7453 18.3888 9.94745 18.5606C9.94745 18.5606 9.99713 18.6027 10.0785 18.6621C10.0838 18.6666 10.0893 18.6707 10.0951 18.6745C10.2064 18.7559 10.3233 18.8295 10.4449 18.8946C10.9507 19.1595 11.8559 19.1878 12.5196 18.8656C13.438 18.4192 13.9389 17.3925 13.9368 16.7826C13.9258 12.992 13.9145 9.20155 13.903 5.41136H13.9665L16.7829 5.39481C16.7809 5.61449 16.8113 5.83328 16.8733 6.04406C16.8802 6.06683 16.8871 6.08822 16.8947 6.11306C16.9023 6.13789 16.9071 6.14962 16.9133 6.16687C16.957 6.28153 17.0075 6.3935 17.0644 6.50219L17.1037 6.58154V6.58775C17.1031 6.58953 17.1031 6.59148 17.1037 6.59327L17.1099 6.60638L17.1161 6.6188C17.1199 6.62682 17.124 6.63465 17.1286 6.64226C17.1327 6.65122 17.1375 6.66019 17.1424 6.66916C17.1686 6.71953 17.2045 6.78577 17.2452 6.86028C17.2707 6.90651 17.2976 6.95274 17.3252 6.99828L17.3549 7.04726C17.3694 7.0721 17.3845 7.09694 17.3997 7.12109L17.4549 7.20871C17.6695 7.54748 18.0462 8.11808 18.5802 8.54931C19.3309 9.15509 20.1934 9.3262 20.7343 9.37726C20.7378 9.54699 20.7419 9.71672 20.7453 9.88645C20.7656 10.3989 20.781 10.9108 20.7916 11.4223Z" fill="#24F6FA"/>
<path d="M20.8011 12.233C19.3795 12.2852 17.9836 11.8431 16.8511 10.9821V17.0538C16.8373 17.2863 16.6338 19.8509 14.3169 21.2625C14.2024 21.3315 14.0871 21.3957 13.9719 21.455C11.7923 22.5672 9.66242 21.6958 9.45198 21.6054C9.24273 21.537 9.0422 21.4444 8.85447 21.3295C8.79582 21.2929 8.73856 21.2549 8.68405 21.2156L8.63506 21.179C7.21374 20.0999 7.1551 17.9017 7.14613 17.5774C7.13094 16.929 7.22422 16.2826 7.42211 15.6649C7.6567 14.9163 8.35701 13.6543 9.76108 12.8823C10.5358 12.4606 11.4065 12.2467 12.2884 12.2613V12.2661C12.2769 12.9952 12.2654 13.7245 12.2539 14.454C12.1056 14.414 11.1962 14.1849 10.3075 14.7445C9.75525 15.1 9.36436 15.6578 9.21877 16.2983C9.13166 16.6091 9.11283 16.9351 9.16357 17.2539C9.24236 17.6475 9.42809 18.0118 9.70036 18.3067C9.81482 18.4386 9.9427 18.5581 10.0819 18.6634C10.0871 18.668 10.0927 18.6721 10.0985 18.6759C10.2078 18.7602 10.3249 18.8339 10.4483 18.896L10.4524 18.8994C10.699 19.2717 11.0546 19.5587 11.4706 19.721C11.8866 19.8833 12.3427 19.913 12.7762 19.806C12.9782 19.7639 13.1744 19.6976 13.3606 19.6087C13.5861 19.5014 13.7928 19.3584 13.9726 19.1851C14.6708 18.5137 14.773 17.585 14.7778 17.5292L14.7474 6.15238L15.051 6.14617L16.8746 6.1103H16.9008C16.9077 6.12823 16.9153 6.14617 16.9229 6.16411C16.965 6.26554 17.0153 6.378 17.074 6.49943L17.1133 6.57878V6.58499C17.1127 6.58677 17.1127 6.58872 17.1133 6.59051L17.1195 6.60362L17.1257 6.61604C17.1295 6.62406 17.1336 6.63189 17.1381 6.6395C17.1423 6.64847 17.1471 6.65743 17.1519 6.6664C17.1837 6.7285 17.2209 6.79267 17.2547 6.85752C17.2803 6.90375 17.3072 6.94998 17.3348 6.99552L17.3644 7.0445L17.4093 7.11833L17.4645 7.20595C17.7801 7.69957 18.1584 8.15019 18.5898 8.54655C19.2195 9.12303 19.9521 9.57572 20.7494 9.88093H20.7549C20.7639 10.3922 20.7729 10.9048 20.7811 11.4161L20.8011 12.233Z" fill="white"/>
<path opacity="0.17" d="M21.6167 10.1245L21.5995 12.9927C21.0406 12.9858 20.4845 12.9112 19.9436 12.7705C19.109 12.5525 18.3219 12.1822 17.6219 11.6783C17.6219 11.9715 17.626 12.409 17.626 12.9409C17.626 13.6488 17.626 14.0511 17.6219 14.4781C17.6094 17.1166 17.675 17.6271 17.4432 18.6703C17.3949 18.9219 17.329 19.1698 17.2458 19.4121C16.8001 20.654 15.8287 21.6489 14.8386 22.1781C14.5623 22.325 14.2722 22.4445 13.9727 22.5348V5.41136L16.7891 5.39481C16.7871 5.61449 16.8175 5.83328 16.8795 6.04406C16.8864 6.06683 16.8933 6.08822 16.9009 6.11306L17.1651 6.10823C17.36 6.80947 17.6902 7.46578 18.1373 8.04012C18.2781 8.21976 18.4302 8.39029 18.5926 8.55069C19.3433 9.15647 20.2058 9.32758 20.7467 9.37864C20.7501 9.54837 20.7543 9.7181 20.7577 9.88783C21.0381 9.98702 21.3251 10.0661 21.6167 10.1245Z" fill="#3A3A3D"/>
</g>
<defs>
<clipPath id="clip0_3269_25129">
<rect width="28" height="28" fill="white"/>
</clipPath>
</defs>
</svg>
