<svg width="146" height="36" viewBox="0 0 146 36" fill="none" xmlns="http://www.w3.org/2000/svg">
<g clip-path="url(#clip0_3412_1668)">
<path d="M10.4424 8.16141C13.4616 4.97198 17.9186 3.19841 22.6361 3.76259C24.1838 3.94768 25.6422 4.37352 26.9824 4.99234L30.8782 2.97406C28.609 1.4828 25.9664 0.475738 23.0787 0.130497C17.1026 -0.584082 11.4601 1.68575 7.66309 5.75303L10.4424 8.16141Z" fill="white"/>
<path d="M14.1544 13.1159L6.80061 6.74489C6.0563 7.66948 5.39984 8.6701 4.84863 9.73802L13.6399 17.3541L41.4183 2.97424C40.6178 2.02368 39.7211 1.15206 38.735 0.380981L14.1544 13.1159Z" fill="white"/>
<path d="M9.56271 26.5695C7.3388 23.7183 6.19928 20.0344 6.66955 16.1743C6.78005 15.2679 6.97734 14.3936 7.24676 13.5546L4.27288 10.9782C3.64598 12.4645 3.2082 14.0575 3.00378 15.7359C2.44083 20.357 3.71224 24.7779 6.24876 28.2851L9.56271 26.5695Z" fill="white"/>
<path d="M31.3909 27.5942C28.3719 30.7838 23.9149 32.5572 19.1972 31.9932C17.6495 31.8081 16.191 31.3823 14.8506 30.7633L10.9551 32.7815C13.2243 34.273 15.8671 35.2799 18.7548 35.6253C24.7309 36.3399 30.3736 34.0701 34.1706 30.0026L31.3909 27.5942Z" fill="white"/>
<path d="M35.5847 7.47052L32.2705 9.18613C34.4944 12.0374 35.6339 15.7212 35.1637 19.5814C35.0532 20.4875 34.8559 21.362 34.5865 22.201L37.5605 24.7775C38.1874 23.2912 38.6252 21.6981 38.8296 20.0199C39.3926 15.3984 38.1212 10.9778 35.5847 7.47052Z" fill="white"/>
<path d="M27.6797 22.6399L35.0335 29.0109C35.7778 28.0863 36.4343 27.0857 36.9857 26.0178L28.1945 18.4017L0.416016 32.7816C1.21651 33.7321 2.11325 34.6037 3.0993 35.3748L27.6797 22.6399Z" fill="white"/>
<path d="M64.2147 23.5916H61.8542V21.371H54.1441V23.5916H51.7734V14.5811H54.1441V19.0223H61.8542V14.5811H64.2147V23.5916Z" fill="white"/>
<path d="M78.2899 23.5716H75.9291V21.3707H68.2192V23.5716H65.8486V18.5186C65.8486 17.2095 66.4959 16.193 67.7909 15.469C68.8602 14.8768 70.1016 14.5809 71.5165 14.5809H72.6419C74.083 14.5809 75.3279 14.8768 76.3776 15.469C77.6525 16.1796 78.2902 17.1961 78.2902 18.5186V23.5716H78.2899ZM75.9291 19.0026V18.5189C75.9291 17.9661 75.5008 17.542 74.6441 17.2458C74.0133 17.0286 73.3456 16.9202 72.6419 16.9202H71.5165C70.2148 16.9202 69.2853 17.1702 68.7274 17.6702C68.4151 17.9398 68.2457 18.2295 68.2192 18.5386V19.0026H75.9291ZM74.8532 12.5481C74.8532 12.8837 74.7352 13.1699 74.4995 13.4068C74.2636 13.6437 73.9597 13.7621 73.5879 13.7621H72.0042C71.9641 13.7621 71.9345 13.7818 71.9143 13.8212C71.9011 13.8409 71.8944 13.9168 71.8944 14.0483H70.7391C70.7391 13.6271 70.8485 13.3081 71.0677 13.0912C71.3134 12.8346 71.6257 12.7062 72.0042 12.7062H73.5879C73.6146 12.7062 73.6478 12.6534 73.6878 12.5481C73.6878 12.4431 73.6544 12.3903 73.5879 12.3903H70.0818V11.3441H73.5879C73.9597 11.3441 74.2636 11.4625 74.4995 11.6994C74.7352 11.9362 74.8532 12.219 74.8532 12.5481Z" fill="white"/>
<path d="M82.2944 23.5916H79.9238V14.5811H82.2944V23.5916Z" fill="white"/>
<path d="M104.558 19.0814C104.558 20.3776 104.129 21.4501 103.272 22.2985C102.416 23.1472 101.337 23.5716 100.035 23.5716H92.1162V14.5809H100.035C101.337 14.5809 102.416 15.0052 103.272 15.854C104.129 16.703 104.558 17.7789 104.558 19.0814ZM94.477 20.2557V21.2229H100.005C100.676 21.2098 101.209 21.0157 101.604 20.6407C101.999 20.2657 102.197 19.746 102.197 19.0814C102.197 18.4233 101.999 17.9019 101.604 17.5172C101.209 17.1322 100.676 16.9333 100.005 16.9202H94.477V17.9167H98.0431V20.2557H94.477Z" fill="white"/>
<path d="M118.344 23.5716H115.983V21.3707H108.273V23.5716H105.902V18.5186C105.902 17.2095 106.55 16.193 107.845 15.469C108.914 14.8768 110.156 14.5809 111.57 14.5809H112.696C114.137 14.5809 115.382 14.8768 116.431 15.469C117.706 16.1796 118.344 17.1961 118.344 18.5186V23.5716H118.344ZM115.983 19.0026V18.5189C115.983 17.9661 115.554 17.542 114.698 17.2458C114.067 17.0286 113.399 16.9202 112.696 16.9202H111.57C110.268 16.9202 109.339 17.1702 108.781 17.6701C108.469 17.9398 108.299 18.2295 108.273 18.5386V19.0026H115.983ZM114.648 11.3144L115.704 12.4099L115.166 12.9627C114.98 13.1471 114.718 13.3215 114.379 13.4856C113.735 13.7818 112.985 13.9299 112.128 13.9299C111.265 13.9299 110.511 13.7818 109.867 13.4856C109.522 13.3215 109.26 13.1468 109.08 12.9627L108.552 12.4099L109.608 11.3144L110.136 11.8375C110.515 12.1928 111.178 12.3703 112.128 12.3703C113.071 12.3703 113.732 12.1928 114.111 11.8375L114.091 11.8572L114.648 11.3144Z" fill="white"/>
<path d="M132.209 23.6309H130.575L122.138 17.9167V23.5916H119.768V14.6008H121.421L129.848 20.1769V14.6008H132.209V23.6309Z" fill="white"/>
<path d="M145.966 23.5716H138.077C136.768 23.5716 135.682 23.1472 134.819 22.2985C133.956 21.4498 133.524 20.3776 133.524 19.0814C133.524 17.7789 133.956 16.703 134.819 15.854C135.682 15.0052 136.768 14.5809 138.077 14.5809H145.966V16.9199H138.077C137.419 16.9199 136.891 17.1157 136.493 17.5072C136.094 17.8988 135.895 18.4233 135.895 19.0814C135.895 19.746 136.091 20.2689 136.483 20.6504C136.875 21.0323 137.406 21.2229 138.077 21.2229H143.605V20.2557H138.017V17.9167H145.966V23.5716Z" fill="white"/>
</g>
<defs>
<clipPath id="clip0_3412_1668">
<rect width="146" height="36" fill="white"/>
</clipPath>
</defs>
</svg>
