<svg width="49" height="48" viewBox="0 0 49 48" fill="none" xmlns="http://www.w3.org/2000/svg">
<path d="M38.75 34.5001C39.7165 34.5001 40.4999 33.7166 40.4999 32.7501C40.4999 31.7836 39.7165 31.0001 38.75 31.0001C37.7835 31.0001 37 31.7836 37 32.7501C37 33.7166 37.7835 34.5001 38.75 34.5001Z" fill="#D1D1D6"/>
<path d="M29.2123 20.0052C28.6534 19.9497 28.3612 19.6617 28.3612 19.5225C28.3612 19.3969 28.585 19.1704 29.0046 19.0739C29.1521 19.0397 29.2881 18.9678 29.3996 18.8654C29.511 18.763 29.5939 18.6334 29.6404 18.4894C29.6867 18.3452 29.6948 18.1914 29.6639 18.0432C29.6331 17.8949 29.5643 17.7572 29.4643 17.6434C28.8294 16.9214 27.8212 16.4164 27.0119 16.4164C26.8253 16.4164 26.6558 16.4421 26.485 16.4653C27.4197 16.0894 28.0553 15.308 28.0553 14.3749C28.0554 14.26 28.0328 14.1462 27.9888 14.04C27.9449 13.9338 27.8804 13.8373 27.7992 13.756C27.7179 13.6748 27.6214 13.6103 27.5152 13.5664C27.409 13.5224 27.2952 13.4998 27.1803 13.4999C25.5994 13.4999 24.3613 14.5253 24.3613 15.8335C24.3613 16.2871 24.7096 16.6469 25.1515 16.6914C24.8205 16.7251 24.5062 16.7187 24.1186 16.6247C23.717 16.5273 23.2615 16.4162 22.7454 16.4162C21.4218 16.4162 19.5 17.6929 19.5 19.6932C19.5 21.6654 21.3875 23.9998 22.9821 23.9998C23.7349 23.9998 24.1937 23.8511 24.5287 23.7427C24.879 23.6299 24.8781 23.6299 25.2285 23.7427C25.5634 23.8512 26.0223 23.9998 26.7751 23.9998C28.0842 23.9998 29.3796 22.5608 29.935 21.2073C30.0393 20.9518 30.0171 20.6621 29.8752 20.4246C29.8049 20.308 29.7084 20.2093 29.5933 20.1366C29.4782 20.0638 29.3478 20.0188 29.2123 20.0052ZM26.7753 22.25C26.2993 22.25 26.0413 22.1663 25.7678 22.0782C25.52 21.9979 25.2389 21.9065 24.8792 21.9065C24.5195 21.9065 24.2383 21.9979 23.9897 22.0782C23.7171 22.1663 23.4582 22.25 22.9822 22.25C22.5601 22.25 21.2501 20.8913 21.2501 19.6934C21.2501 18.7082 22.373 18.1663 22.7455 18.1663C23.0514 18.1663 23.3684 18.2433 23.7051 18.3253C24.4502 18.5064 25.3081 18.5064 26.0532 18.3253C26.3891 18.2433 26.706 18.1663 27.012 18.1663C27.047 18.1663 27.094 18.1723 27.1488 18.1851C26.8069 18.5594 26.6113 19.0234 26.6113 19.5224C26.6113 20.3051 27.0855 20.9887 27.8332 21.3894C27.4195 21.9372 26.9539 22.25 26.7753 22.25Z" fill="#D1D1D6"/>
<path d="M45.75 25.6552C45.75 24.981 45.5612 24.3222 45.2031 23.7497L37.8947 12.056C37.0906 10.769 35.7038 10 34.1853 10H15.3147C13.7963 10 12.4094 10.769 11.6053 12.056L4.296 23.7505C3.93899 24.3216 3.74979 24.9816 3.75 25.6552C3.75 25.6877 3.75878 25.7178 3.7596 25.75H3.75V34.5C3.75 36.4303 5.31967 38.0001 7.25003 38.0001H42.2501C44.1803 38.0001 45.75 36.4303 45.75 34.5V25.75H45.7404C45.7412 25.7178 45.75 25.6877 45.75 25.6552ZM44 34.5C44 35.4647 43.2148 36.25 42.2501 36.25H7.25003C6.28534 36.25 5.50006 35.4647 5.50006 34.5V28.7243C6.04122 29.0509 6.66785 29.25 7.34486 29.25H42.1552C42.8322 29.25 43.4588 29.0509 44 28.7243V34.5ZM42.1552 27.5001H7.34486C6.328 27.5001 5.49997 26.672 5.49997 25.6552C5.49997 25.3091 5.59743 24.9716 5.78027 24.6776L13.0888 12.9839C13.5715 12.2114 14.4038 11.75 15.3147 11.75H34.1853C35.0962 11.75 35.9285 12.2114 36.4112 12.9839L43.7189 24.6768C43.9024 24.9701 43.9999 25.3091 44 25.6552C44 26.672 43.172 27.5001 42.1552 27.5001Z" fill="#D1D1D6"/>
</svg>
