<svg width="49" height="48" viewBox="0 0 49 48" fill="none" xmlns="http://www.w3.org/2000/svg">
<path d="M33.5001 3H16C13.105 3 10.75 5.35495 10.75 8.25V39.75C10.75 42.645 13.105 45 16 45H33.5C36.395 45 38.75 42.645 38.75 39.75V8.25C38.75 5.35495 36.395 3 33.5001 3ZM37 39.75C37 41.6803 35.4303 43.25 33.5 43.25H16C14.0697 43.25 12.5 41.6804 12.5 39.75V8.25C12.5 6.31972 14.0696 4.74997 16 4.74997H33.5C35.4302 4.74997 37 6.31964 37 8.25V39.75Z" fill="#D1D1D6"/>
<path d="M25.625 17.0001H23.875C22.4275 17.0001 21.25 18.1775 21.25 19.6251V37.125C21.25 38.5726 22.4275 39.75 23.875 39.75H25.625C27.0725 39.75 28.25 38.5726 28.25 37.125V19.6251C28.25 18.1775 27.0725 17.0001 25.625 17.0001ZM26.4999 37.125C26.4999 37.6078 26.1077 38.0001 25.6249 38.0001H23.8749C23.3922 38.0001 22.9999 37.6079 22.9999 37.125V19.6251C22.9999 19.1423 23.3921 18.75 23.8749 18.75H25.6249C26.1076 18.75 26.4999 19.1422 26.4999 19.6251V37.125Z" fill="#D1D1D6"/>
<path d="M24.75 13.5C25.7165 13.5 26.4999 12.7165 26.4999 11.75C26.4999 10.7836 25.7165 10.0001 24.75 10.0001C23.7835 10.0001 23 10.7836 23 11.75C23 12.7165 23.7835 13.5 24.75 13.5Z" fill="#D1D1D6"/>
</svg>
