<svg width="49" height="48" viewBox="0 0 49 48" fill="none" xmlns="http://www.w3.org/2000/svg">
<g clip-path="url(#clip0_3487_8354)">
<path d="M31.05 24.2831V33.5831C31.05 33.7953 30.9657 33.9988 30.8157 34.1488C30.6657 34.2988 30.4622 34.3831 30.25 34.3831C30.0378 34.3831 29.8343 34.2988 29.6843 34.1488C29.5343 33.9988 29.45 33.7953 29.45 33.5831V24.2831C29.45 23.4009 28.7322 22.6831 27.85 22.6831H3.45C2.5678 22.6831 1.85 23.4009 1.85 24.2831V38.8831C1.85 39.7653 2.5678 40.4831 3.45 40.4831H27.85C28.7322 40.4831 29.45 39.7653 29.45 38.8831C29.45 38.6709 29.5343 38.4675 29.6843 38.3174C29.8343 38.1674 30.0378 38.0831 30.25 38.0831C30.4622 38.0831 30.6657 38.1674 30.8157 38.3174C30.9657 38.4675 31.05 38.6709 31.05 38.8831C31.05 40.6476 29.6145 42.0831 27.85 42.0831H3.45C1.6855 42.0831 0.25 40.6476 0.25 38.8831V24.2831C0.25 22.5186 1.6855 21.0831 3.45 21.0831H27.85C29.6145 21.0831 31.05 22.5186 31.05 24.2831ZM7.75 37.1831C7.75 37.3953 7.83429 37.5988 7.98431 37.7488C8.13434 37.8988 8.33783 37.9831 8.55 37.9831H22.75C22.9622 37.9831 23.1657 37.8988 23.3157 37.7488C23.4657 37.5988 23.55 37.3953 23.55 37.1831C23.55 36.9709 23.4657 36.7675 23.3157 36.6174C23.1657 36.4674 22.9622 36.3831 22.75 36.3831H8.55C8.33783 36.3831 8.13434 36.4674 7.98431 36.6174C7.83429 36.7675 7.75 36.9709 7.75 37.1831ZM11.7875 32.8831H13.075C13.2872 32.8831 13.4907 32.7988 13.6407 32.6488C13.7907 32.4988 13.875 32.2953 13.875 32.0831C13.875 31.8709 13.7907 31.6675 13.6407 31.5174C13.4907 31.3674 13.2872 31.2831 13.075 31.2831H11.7875C11.5753 31.2831 11.3718 31.3674 11.2218 31.5174C11.0718 31.6675 10.9875 31.8709 10.9875 32.0831C10.9875 32.2953 11.0718 32.4988 11.2218 32.6488C11.3718 32.7988 11.5753 32.8831 11.7875 32.8831ZM6.6375 31.2831H5.35C5.13783 31.2831 4.93434 31.3674 4.78431 31.5174C4.63429 31.6675 4.55 31.8709 4.55 32.0831C4.55 32.2953 4.63429 32.4988 4.78431 32.6488C4.93434 32.7988 5.13783 32.8831 5.35 32.8831H6.6375C6.84967 32.8831 7.05316 32.7988 7.20319 32.6488C7.35321 32.4988 7.4375 32.2953 7.4375 32.0831C7.4375 31.8709 7.35321 31.6675 7.20319 31.5174C7.05316 31.3674 6.84967 31.2831 6.6375 31.2831ZM18.225 32.8831H19.5125C19.7247 32.8831 19.9282 32.7988 20.0782 32.6488C20.2282 32.4988 20.3125 32.2953 20.3125 32.0831C20.3125 31.8709 20.2282 31.6675 20.0782 31.5174C19.9282 31.3674 19.7247 31.2831 19.5125 31.2831H18.225C18.0128 31.2831 17.8093 31.3674 17.6593 31.5174C17.5093 31.6675 17.425 31.8709 17.425 32.0831C17.425 32.2953 17.5093 32.4988 17.6593 32.6488C17.8093 32.7988 18.0128 32.8831 18.225 32.8831ZM25.95 31.2831H24.6625C24.4503 31.2831 24.2468 31.3674 24.0968 31.5174C23.9468 31.6675 23.8625 31.8709 23.8625 32.0831C23.8625 32.2953 23.9468 32.4988 24.0968 32.6488C24.2468 32.7988 24.4503 32.8831 24.6625 32.8831H25.95C26.1622 32.8831 26.3657 32.7988 26.5157 32.6488C26.6657 32.4988 26.75 32.2953 26.75 32.0831C26.75 31.8709 26.6657 31.6675 26.5157 31.5174C26.3657 31.3674 26.1622 31.2831 25.95 31.2831ZM11.7875 27.8831H13.075C13.2872 27.8831 13.4907 27.7988 13.6407 27.6488C13.7907 27.4988 13.875 27.2953 13.875 27.0831C13.875 26.8709 13.7907 26.6675 13.6407 26.5174C13.4907 26.3674 13.2872 26.2831 13.075 26.2831H11.7875C11.5753 26.2831 11.3718 26.3674 11.2218 26.5174C11.0718 26.6675 10.9875 26.8709 10.9875 27.0831C10.9875 27.2953 11.0718 27.4988 11.2218 27.6488C11.3718 27.7988 11.5753 27.8831 11.7875 27.8831ZM6.6375 26.2831H5.35C5.13783 26.2831 4.93434 26.3674 4.78431 26.5174C4.63429 26.6675 4.55 26.8709 4.55 27.0831C4.55 27.2953 4.63429 27.4988 4.78431 27.6488C4.93434 27.7988 5.13783 27.8831 5.35 27.8831H6.6375C6.84967 27.8831 7.05316 27.7988 7.20319 27.6488C7.35321 27.4988 7.4375 27.2953 7.4375 27.0831C7.4375 26.8709 7.35321 26.6675 7.20319 26.5174C7.05316 26.3674 6.84967 26.2831 6.6375 26.2831ZM18.225 27.8831H19.5125C19.7247 27.8831 19.9282 27.7988 20.0782 27.6488C20.2282 27.4988 20.3125 27.2953 20.3125 27.0831C20.3125 26.8709 20.2282 26.6675 20.0782 26.5174C19.9282 26.3674 19.7247 26.2831 19.5125 26.2831H18.225C18.0128 26.2831 17.8093 26.3674 17.6593 26.5174C17.5093 26.6675 17.425 26.8709 17.425 27.0831C17.425 27.2953 17.5093 27.4988 17.6593 27.6488C17.8093 27.7988 18.0128 27.8831 18.225 27.8831ZM25.95 26.2831H24.6625C24.4503 26.2831 24.2468 26.3674 24.0968 26.5174C23.9468 26.6675 23.8625 26.8709 23.8625 27.0831C23.8625 27.2953 23.9468 27.4988 24.0968 27.6488C24.2468 27.7988 24.4503 27.8831 24.6625 27.8831H25.95C26.1622 27.8831 26.3657 27.7988 26.5157 27.6488C26.6657 27.4988 26.75 27.2953 26.75 27.0831C26.75 26.8709 26.6657 26.6675 26.5157 26.5174C26.3657 26.3674 26.1622 26.2831 25.95 26.2831ZM47.45 26.6831C47.2378 26.6831 47.0343 26.7674 46.8843 26.9174C46.7343 27.0675 46.65 27.2709 46.65 27.4831V35.5331C46.65 38.2625 44.4294 40.4831 41.7 40.4831C38.9706 40.4831 36.75 38.2625 36.75 35.5331V27.4831C36.75 25.2775 38.5444 23.4831 40.75 23.4831H42.65C43.5323 23.4831 44.3687 23.7645 45.0688 24.297C45.2377 24.4254 45.4507 24.4815 45.6609 24.4529C45.8712 24.4243 46.0614 24.3134 46.1899 24.1445C46.3183 23.9756 46.3744 23.7626 46.3458 23.5524C46.3172 23.3422 46.2063 23.1519 46.0374 23.0234C45.0565 22.2775 43.8852 21.8832 42.6501 21.8832H40.7501C37.6622 21.8832 35.1501 24.3953 35.1501 27.4832V35.5332C35.1501 39.1449 38.0884 42.0832 41.7001 42.0832C45.3118 42.0832 48.2501 39.1449 48.2501 35.5332V27.4832C48.2501 27.271 48.1658 27.0675 48.0157 26.9175C47.8657 26.7674 47.6622 26.6831 47.45 26.6831ZM40.85 27.6831V29.1831C40.85 29.3953 40.9343 29.5988 41.0843 29.7488C41.2343 29.8988 41.4378 29.9831 41.65 29.9831C41.8622 29.9831 42.0657 29.8988 42.2157 29.7488C42.3657 29.5988 42.45 29.3953 42.45 29.1831V27.6831C42.45 27.4709 42.3657 27.2675 42.2157 27.1174C42.0657 26.9674 41.8622 26.8831 41.65 26.8831C41.4378 26.8831 41.2343 26.9674 41.0843 27.1174C40.9343 27.2675 40.85 27.4709 40.85 27.6831ZM23.2236 16.3732C23.3621 16.5117 23.5465 16.5946 23.742 16.6062C23.9375 16.6178 24.1304 16.5573 24.2843 16.4362C24.4382 16.5573 24.6312 16.6178 24.8267 16.6062C25.0222 16.5946 25.2066 16.5117 25.3451 16.3732C26.2896 15.4282 25.6115 13.8126 24.2843 13.8126C22.9582 13.8126 22.2784 15.4275 23.2236 16.3732ZM27.9613 12.7671C28.0356 12.6928 28.0945 12.6047 28.1347 12.5076C28.175 12.4106 28.1957 12.3065 28.1957 12.2015C28.1957 12.0964 28.175 11.9924 28.1348 11.8953C28.0946 11.7983 28.0357 11.7101 27.9614 11.6358C25.9292 9.60341 22.64 9.60331 20.6074 11.6357C20.4574 11.7857 20.3731 11.9892 20.3731 12.2014C20.3731 12.4136 20.4574 12.6171 20.6074 12.7671C20.7574 12.9171 20.9609 13.0014 21.1731 13.0014C21.3853 13.0014 21.5888 12.9171 21.7388 12.7671C23.1457 11.3602 25.4228 11.3599 26.8299 12.767C26.9042 12.8413 26.9924 12.9002 27.0894 12.9405C27.1865 12.9807 27.2905 13.0014 27.3956 13.0014C27.5006 13.0014 27.6047 12.9807 27.7017 12.9405C27.7988 12.9003 27.887 12.8414 27.9613 12.7671ZM17.6376 8.66571C17.4876 8.81574 17.4033 9.01923 17.4033 9.23141C17.4033 9.44359 17.4876 9.64708 17.6376 9.79711C17.7876 9.94715 17.9911 10.0314 18.2033 10.0314C18.4155 10.0314 18.619 9.94715 18.769 9.79711C21.8171 6.74881 26.7513 6.74841 29.7998 9.79711C29.874 9.8715 29.9622 9.9305 30.0593 9.97071C30.1564 10.0109 30.2604 10.0315 30.3655 10.0314C31.0719 10.0314 31.4367 9.17131 30.9312 8.66571C27.2663 5.00071 21.3027 5.00071 17.6376 8.66571Z" fill="#D1D1D6"/>
</g>
<defs>
<clipPath id="clip0_3487_8354">
<rect width="48" height="48" fill="white" transform="translate(0.25)"/>
</clipPath>
</defs>
</svg>
