<svg width="49" height="48" viewBox="0 0 49 48" fill="none" xmlns="http://www.w3.org/2000/svg">
<g clip-path="url(#clip0_3487_6296)">
<path d="M47.5 35.6813H43.8063C43.8923 35.4405 43.9367 35.1869 43.9375 34.9313V10.4438C43.9375 9.84702 43.7004 9.27472 43.2785 8.85277C42.8565 8.43081 42.2842 8.19376 41.6875 8.19376H6.8125C6.21576 8.19376 5.64347 8.43081 5.22151 8.85277C4.79955 9.27472 4.5625 9.84702 4.5625 10.4438V34.9313C4.56333 35.1869 4.60771 35.4405 4.69375 35.6813H1C0.801088 35.6813 0.610322 35.7603 0.46967 35.9009C0.329018 36.0416 0.25 36.2323 0.25 36.4313L0.25 36.6188C0.250992 37.4638 0.587136 38.274 1.18469 38.8716C1.78225 39.4691 2.59243 39.8053 3.4375 39.8063H45.0625C45.9076 39.8053 46.7178 39.4691 47.3153 38.8716C47.9129 38.274 48.249 37.4638 48.25 36.6188V36.4313C48.25 36.2323 48.171 36.0416 48.0303 35.9009C47.8897 35.7603 47.6989 35.6813 47.5 35.6813ZM6.0625 10.4438C6.0625 10.2448 6.14152 10.0541 6.28217 9.91343C6.42282 9.77277 6.61359 9.69376 6.8125 9.69376H41.6875C41.8864 9.69376 42.0772 9.77277 42.2178 9.91343C42.3585 10.0541 42.4375 10.2448 42.4375 10.4438V34.9313C42.4375 35.1302 42.3585 35.3209 42.2178 35.4616C42.0772 35.6022 41.8864 35.6813 41.6875 35.6813H6.8125C6.61359 35.6813 6.42282 35.6022 6.28217 35.4616C6.14152 35.3209 6.0625 35.1302 6.0625 34.9313V10.4438ZM45.0625 38.31H3.4375C3.08883 38.3093 2.74892 38.2008 2.46429 37.9994C2.17967 37.798 1.96424 37.5136 1.8475 37.185H46.6525C46.5351 37.5129 46.3194 37.7965 46.0349 37.9972C45.7503 38.1978 45.4107 38.3058 45.0625 38.3063V38.31Z" fill="#D1D1D6"/>
<path d="M21.8125 34.5562H26.6875C26.8864 34.5562 27.0772 34.4772 27.2178 34.3366C27.3585 34.1959 27.4375 34.0052 27.4375 33.8062C27.4375 33.6073 27.3585 33.4166 27.2178 33.2759C27.0772 33.1353 26.8864 33.0562 26.6875 33.0562H21.8125C21.6136 33.0562 21.4228 33.1353 21.2822 33.2759C21.1415 33.4166 21.0625 33.6073 21.0625 33.8062C21.0625 34.0052 21.1415 34.1959 21.2822 34.3366C21.4228 34.4772 21.6136 34.5562 21.8125 34.5562Z" fill="#D1D1D6"/>
<path d="M24.25 12.7388C24.716 12.7388 25.0938 12.361 25.0938 11.895C25.0938 11.429 24.716 11.0513 24.25 11.0513C23.784 11.0513 23.4062 11.429 23.4062 11.895C23.4062 12.361 23.784 12.7388 24.25 12.7388Z" fill="#D1D1D6"/>
</g>
<defs>
<clipPath id="clip0_3487_6296">
<rect width="48" height="48" fill="white" transform="translate(0.25)"/>
</clipPath>
</defs>
</svg>
