<svg width="24" height="24" viewBox="0 0 24 24" fill="none" xmlns="http://www.w3.org/2000/svg">
<path d="M10.9478 3.1765C6.66281 3.1765 3.17647 6.66284 3.17647 10.9478C3.17647 15.2331 6.66281 18.7192 10.9478 18.7192C15.2331 18.7192 18.7191 15.2331 18.7191 10.9478C18.7191 6.66284 15.2331 3.1765 10.9478 3.1765ZM10.9478 17.2845C7.45382 17.2845 4.61118 14.4419 4.61118 10.9479C4.61118 7.45388 7.45382 4.61121 10.9478 4.61121C14.4418 4.61121 17.2844 7.45385 17.2844 10.9478C17.2844 14.4418 14.4418 17.2845 10.9478 17.2845Z" fill="#1C1C1E"/>
<path fill-rule="evenodd" clip-rule="evenodd" d="M3 10.9478C3 6.56538 6.56535 3.00003 10.9478 3.00003C15.3305 3.00003 18.8956 6.56538 18.8956 10.9478C18.8956 15.3305 15.3305 18.8956 10.9478 18.8956C6.56535 18.8956 3 15.3305 3 10.9478ZM4.78765 10.9479C4.78765 14.3444 7.55128 17.108 10.9478 17.108C14.3443 17.108 17.108 14.3444 17.108 10.9478C17.108 7.55131 14.3443 4.78768 10.9478 4.78768C7.55128 4.78768 4.78765 7.55134 4.78765 10.9479ZM3.17647 10.9478C3.17647 6.66284 6.66281 3.1765 10.9478 3.1765C15.2331 3.1765 18.7191 6.66284 18.7191 10.9478C18.7191 15.2331 15.2331 18.7192 10.9478 18.7192C6.66281 18.7192 3.17647 15.2331 3.17647 10.9478ZM4.61118 10.9479C4.61118 14.4419 7.45382 17.2845 10.9478 17.2845C14.4418 17.2845 17.2844 14.4418 17.2844 10.9478C17.2844 7.45385 14.4418 4.61121 10.9478 4.61121C7.45382 4.61121 4.61118 7.45388 4.61118 10.9479Z" fill="#1C1C1E"/>
<path d="M20.6133 19.5989L16.5005 15.486C16.2203 15.2058 15.7664 15.2058 15.4862 15.486C15.2059 15.7661 15.2059 16.2204 15.4862 16.5004L19.599 20.6132C19.7391 20.7533 19.9225 20.8234 20.1062 20.8234C20.2896 20.8234 20.4732 20.7533 20.6133 20.6132C20.8936 20.3332 20.8936 19.8789 20.6133 19.5989Z" fill="#1C1C1E"/>
<path fill-rule="evenodd" clip-rule="evenodd" d="M16.6253 15.3613L20.7381 19.4741C21.0873 19.823 21.0873 20.3891 20.7381 20.738M16.6253 15.3613C16.2761 15.0121 15.7106 15.0121 15.3614 15.3612L16.6253 15.3613ZM15.3614 15.3612C15.3614 15.3612 15.3614 15.3612 15.3614 15.3612C15.0123 15.7101 15.0122 16.2763 15.3614 16.6252C15.3614 16.6252 15.3614 16.6252 15.3614 16.6252L19.4742 20.738C19.6487 20.9125 19.8776 20.9999 20.1062 20.9999C20.3345 20.9999 20.5636 20.9125 20.7381 20.738M16.5005 15.486L20.6133 19.5989C20.8936 19.8789 20.8936 20.3332 20.6133 20.6132C20.4732 20.7533 20.2896 20.8234 20.1062 20.8234C19.9225 20.8234 19.7391 20.7533 19.599 20.6132L15.4862 16.5004C15.2059 16.2204 15.2059 15.7661 15.4862 15.486C15.7664 15.2058 16.2203 15.2058 16.5005 15.486Z" fill="#1C1C1E"/>
</svg>
