<svg width="49" height="48" viewBox="0 0 49 48" fill="none" xmlns="http://www.w3.org/2000/svg">
<path d="M46 21.25H45.7945C46.1635 22.138 45.901 23.095 45.25 23.686V35.125C45.25 36.1585 44.4085 37 43.375 37H5.125C4.0915 37 3.25 36.1585 3.25 35.125V23.686C2.91755 23.3868 2.6865 22.9914 2.58893 22.5549C2.49136 22.1184 2.5321 21.6623 2.7055 21.25H2.5C2.30109 21.25 2.11032 21.329 1.96967 21.4697C1.82902 21.6103 1.75 21.8011 1.75 22V35.125C1.75 36.9865 3.265 38.5 5.125 38.5H43.375C45.235 38.5 46.75 36.9865 46.75 35.125V22C46.75 21.8011 46.671 21.6103 46.5303 21.4697C46.3897 21.329 46.1989 21.25 46 21.25Z" fill="#D1D1D6"/>
<path d="M43.8055 25H4.69752C4.18795 25.0027 3.68668 24.871 3.24425 24.6182C2.80182 24.3654 2.43388 24.0004 2.17752 23.56C1.91672 23.1216 1.77607 22.6222 1.76975 22.1121C1.76343 21.602 1.89166 21.0992 2.14152 20.6545L6.55902 12.7C7.01454 11.8818 7.68032 11.2002 8.48753 10.7255C9.29474 10.2508 10.2141 10.0004 11.1505 10H37.354C39.2605 10 41.017 11.035 41.9455 12.7L46.363 20.6545C46.8715 21.5695 46.858 22.6555 46.327 23.56C45.7945 24.4615 44.8525 25 43.8055 25ZM11.1505 11.5C9.79002 11.5 8.53302 12.2395 7.87152 13.429L3.45402 21.382C3.33194 21.5986 3.26918 21.8436 3.27208 22.0922C3.27498 22.3408 3.34343 22.5843 3.47052 22.798C3.59515 23.0127 3.77424 23.1906 3.98969 23.3139C4.20513 23.4371 4.4493 23.5013 4.69752 23.5H43.8055C44.3155 23.5 44.7745 23.2375 45.0325 22.798C45.2905 22.3585 45.298 21.829 45.049 21.382L40.6315 13.4275C40.3061 12.8433 39.8306 12.3567 39.2542 12.0178C38.6777 11.6789 38.0212 11.5002 37.3525 11.5H11.1505ZM40.7515 33.25C40.7515 33.4489 40.6725 33.6397 40.5318 33.7803C40.3912 33.921 40.2004 34 40.0015 34C39.8026 34 39.6118 33.921 39.4712 33.7803C39.3305 33.6397 39.2515 33.4489 39.2515 33.25C39.2515 33.0511 39.3305 32.8603 39.4712 32.7197C39.6118 32.579 39.8026 32.5 40.0015 32.5C40.2004 32.5 40.3912 32.579 40.5318 32.7197C40.6725 32.8603 40.7515 33.0511 40.7515 33.25ZM37.7515 33.25C37.7515 33.4489 37.6725 33.6397 37.5318 33.7803C37.3912 33.921 37.2004 34 37.0015 34C36.8026 34 36.6118 33.921 36.4712 33.7803C36.3305 33.6397 36.2515 33.4489 36.2515 33.25C36.2515 33.0511 36.3305 32.8603 36.4712 32.7197C36.6118 32.579 36.8026 32.5 37.0015 32.5C37.2004 32.5 37.3912 32.579 37.5318 32.7197C37.6725 32.8603 37.7515 33.0511 37.7515 33.25Z" fill="#D1D1D6"/>
</svg>
