<svg width="24" height="24" viewBox="0 0 24 24" fill="none" xmlns="http://www.w3.org/2000/svg">
<path d="M20.6562 5.24219H15.9297V4.34375C15.9297 3.05141 14.8783 2 13.5859 2H10.8516C9.55922 2 8.50781 3.05141 8.50781 4.34375V5.24219H3.78125C3.34977 5.24219 3 5.59195 3 6.02344C3 6.45492 3.34977 6.80469 3.78125 6.80469H4.59031L5.54242 19.1479C5.5427 19.1515 5.54301 19.1552 5.54332 19.1588C5.61426 19.9371 5.97121 20.6559 6.5484 21.1829C7.12559 21.7098 7.87387 22 8.65539 22H15.7821C17.4097 22 18.7476 20.7878 18.8942 19.1804C18.9334 18.7506 18.6168 18.3705 18.1871 18.3314C17.757 18.2922 17.3773 18.6087 17.3381 19.0384C17.2654 19.8361 16.5965 20.4375 15.7821 20.4375H8.65539C7.84379 20.4375 7.1759 19.8293 7.0998 19.0218L6.15746 6.80469H18.28L17.6128 15.4555C17.5796 15.8857 17.9014 16.2614 18.3316 16.2946C18.3521 16.2961 18.3724 16.2969 18.3926 16.2969C18.7968 16.2969 19.1391 15.9854 19.1707 15.5757L19.8472 6.80469H20.6562C21.0877 6.80469 21.4375 6.45492 21.4375 6.02344C21.4375 5.59195 21.0877 5.24219 20.6562 5.24219ZM14.3672 5.24219H10.0703V4.34375C10.0703 3.91297 10.4208 3.5625 10.8516 3.5625H13.5859C14.0167 3.5625 14.3672 3.91297 14.3672 4.34375V5.24219Z" fill="#636366"/>
<path d="M8.66904 8.36793C8.23798 8.38676 7.9038 8.75144 7.92263 9.18254L8.31326 18.1252C8.33158 18.5447 8.6774 18.8724 9.09318 18.8724C9.10466 18.8724 9.11627 18.8722 9.12787 18.8716C9.55892 18.8528 9.8931 18.4881 9.87427 18.057L9.48365 9.11429C9.46482 8.68328 9.09943 8.34855 8.66904 8.36793Z" fill="#636366"/>
<path d="M14.9539 9.11435L14.5633 18.0571C14.5444 18.4881 14.8786 18.8529 15.3097 18.8717C15.3213 18.8722 15.3328 18.8725 15.3444 18.8725C15.7601 18.8725 16.106 18.5447 16.1243 18.1253L16.5149 9.18259C16.5337 8.75153 16.1995 8.38681 15.7685 8.36798C15.3381 8.34872 14.9727 8.68329 14.9539 9.11435Z" fill="#636366"/>
<path d="M11.4375 9.14844V18.0911C11.4375 18.5226 11.7873 18.8724 12.2188 18.8724C12.6502 18.8724 13 18.5226 13 18.0911V9.14844C13 8.71695 12.6502 8.36719 12.2188 8.36719C11.7873 8.36719 11.4375 8.71695 11.4375 9.14844Z" fill="#636366"/>
<path fill-rule="evenodd" clip-rule="evenodd" d="M18.4027 14.2029C18.8387 14.1877 19.2045 14.5288 19.2198 14.9649C19.233 15.3432 19.1976 16.2567 19.1372 17.1376C19.1065 17.5849 19.0685 18.0387 19.0246 18.4291C18.9829 18.8006 18.9304 19.1706 18.86 19.417C18.7401 19.8365 18.3028 20.0794 17.8833 19.9595C17.4638 19.8396 17.2209 19.4024 17.3408 18.9829C17.3704 18.8793 17.412 18.6317 17.4545 18.2528C17.4949 17.8927 17.5312 17.4633 17.5609 17.0296C17.6213 16.1483 17.6508 15.308 17.6407 15.02C17.6255 14.584 17.9666 14.2182 18.4027 14.2029Z" fill="#636366"/>
</svg>
