<svg width="28" height="28" viewBox="0 0 28 28" fill="none" xmlns="http://www.w3.org/2000/svg">
<path d="M0 14C0 6.26801 6.26801 0 14 0C21.732 0 28 6.26801 28 14C28 21.732 21.732 28 14 28C6.26801 28 0 21.732 0 14Z" fill="#3A3A3D"/>
<path d="M21.1564 10.5427C20.9847 9.88296 20.4786 9.36343 19.8361 9.18711C18.6716 8.86667 14.0018 8.86667 14.0018 8.86667C14.0018 8.86667 9.33202 8.86667 8.16747 9.18711C7.52491 9.36343 7.01888 9.88296 6.84714 10.5427C6.53516 11.7384 6.53516 14.2333 6.53516 14.2333C6.53516 14.2333 6.53516 16.7281 6.84714 17.924C7.01888 18.5837 7.52491 19.1032 8.16747 19.2796C9.33202 19.6 14.0018 19.6 14.0018 19.6C14.0018 19.6 18.6716 19.6 19.8361 19.2796C20.4786 19.1032 20.9847 18.5837 21.1564 17.924C21.4685 16.7281 21.4685 14.2333 21.4685 14.2333C21.4685 14.2333 21.4685 11.7384 21.1564 10.5427Z" fill="white"/>
<path d="M12.6016 16.8V12.1333L16.3349 14.4668L12.6016 16.8Z" fill="#3A3A3D"/>
</svg>
